<svg xmlns="http://www.w3.org/2000/svg" width="100" height="100" viewBox="0 0 100 100">
<g>
<path d="M 42.58 78.88 C39.68,76.60 39.27,72.06 41.89,71.20 C42.95,70.85 43.12,71.38 42.61,73.40 C42.05,75.65 42.42,76.33 44.97,77.78 C46.63,78.73 47.99,79.84 47.99,80.25 C48.01,81.68 45.25,80.99 42.58,78.88 ZM 50.00 80.00 C50.00,79.45 50.85,79.00 51.89,79.00 C52.93,79.00 54.84,78.13 56.14,77.06 C59.89,73.99 57.69,71.74 49.63,70.42 C41.22,69.04 38.00,66.36 38.00,60.76 C38.00,58.62 38.49,55.96 39.08,54.85 C40.44,52.30 45.86,50.00 50.50,50.00 C56.12,50.00 60.87,47.53 62.46,43.79 C63.82,40.58 63.79,40.49 61.17,39.99 C57.10,39.21 57.74,36.50 62.00,36.50 C65.39,36.50 65.50,36.62 65.39,40.21 C65.18,47.19 59.58,52.00 51.68,52.00 C47.04,52.00 42.15,53.84 40.98,56.04 C39.40,58.99 39.85,63.55 41.90,65.41 C42.94,66.35 46.59,67.52 50.00,68.00 C59.51,69.34 62.82,74.00 57.69,78.83 C55.34,81.03 50.00,81.84 50.00,80.00 ZM 57.61 67.18 C57.29,66.65 57.69,65.67 58.51,64.99 C60.25,63.55 60.47,58.74 58.92,55.85 C57.46,53.13 58.80,52.00 60.58,54.44 C62.69,57.32 62.40,64.32 60.10,66.41 C59.03,67.38 57.94,67.71 57.61,67.18 ZM 49.00 60.00 C49.00,56.67 49.44,54.00 50.00,54.00 C50.56,54.00 51.00,56.67 51.00,60.00 C51.00,63.33 50.56,66.00 50.00,66.00 C49.44,66.00 49.00,63.33 49.00,60.00 ZM 37.10 47.40 C34.67,44.32 33.33,38.27 34.75,36.85 C35.30,36.30 37.05,35.99 38.63,36.17 C42.07,36.57 42.55,39.35 39.25,39.82 C36.21,40.25 36.33,43.42 39.50,46.59 C42.38,49.47 42.55,50.00 40.57,50.00 C39.79,50.00 38.22,48.83 37.10,47.40 ZM 49.00 36.00 C49.00,29.33 49.39,25.00 50.00,25.00 C50.61,25.00 51.00,29.33 51.00,36.00 C51.00,42.67 50.61,47.00 50.00,47.00 C49.39,47.00 49.00,42.67 49.00,36.00 ZM 27.37 27.13 C25.10,26.07 22.96,24.75 22.62,24.19 C21.78,22.83 29.89,19.00 33.57,19.02 C35.18,19.02 37.17,19.47 38.00,20.00 C39.13,20.73 38.63,20.98 36.00,21.00 C31.07,21.04 28.00,22.01 28.00,23.54 C28.00,24.55 28.80,24.62 31.57,23.85 C35.21,22.85 41.00,23.52 41.00,24.96 C41.00,26.45 38.19,28.09 34.84,28.57 C32.75,28.87 29.95,28.33 27.37,27.13 ZM 62.08 27.74 C60.75,27.06 59.49,25.98 59.28,25.34 C58.71,23.63 64.33,22.72 68.43,23.85 C71.20,24.62 72.00,24.55 72.00,23.54 C72.00,22.01 68.93,21.04 64.00,21.00 C61.37,20.98 60.87,20.73 62.00,20.00 C62.83,19.47 64.82,19.02 66.43,19.02 C70.11,19.00 78.22,22.83 77.38,24.19 C76.50,25.62 68.90,28.95 66.50,28.96 C65.40,28.97 63.41,28.41 62.08,27.74 ZM 48.67 22.33 C47.29,20.96 48.07,19.00 50.00,19.00 C51.33,19.00 52.00,19.67 52.00,21.00 C52.00,22.93 50.04,23.71 48.67,22.33 Z" fill="rgba(215,237,82,1)"/>
</g>
</svg>