<svg xmlns="http://www.w3.org/2000/svg" width="512" height="512" viewBox="0 0 512 512">
<g>
<path d="M 110.00 494.72 C104.70,492.10 99.00,466.70 99.00,445.67 C99.00,418.84 105.99,389.75 121.62,351.60 C124.11,345.51 134.61,322.52 144.94,300.51 C155.28,278.51 165.10,256.90 166.76,252.50 C173.48,234.74 179.37,213.41 182.44,195.70 C188.04,163.45 186.78,123.66 179.07,89.26 C176.71,78.72 176.52,74.22 178.33,71.83 C179.03,70.91 199.38,58.36 223.55,43.93 C270.54,15.89 272.24,15.11 276.13,19.91 C278.41,22.73 278.48,25.41 276.43,31.12 C274.45,36.63 275.15,42.71 278.57,49.71 C283.40,59.62 293.87,66.65 315.50,74.52 C338.89,83.03 346.10,87.00 355.99,96.83 C362.70,103.50 365.56,107.23 368.37,113.00 C377.18,131.08 377.06,150.30 368.02,168.65 C364.83,175.11 362.46,178.24 356.55,183.76 L 349.10 190.72 L 358.71 203.61 C378.92,230.71 393.12,254.66 401.35,275.50 C403.30,280.45 406.80,291.70 409.13,300.50 C413.35,316.46 413.36,316.54 413.38,334.50 C413.39,347.65 412.92,354.93 411.63,361.50 C406.43,388.13 397.38,405.64 380.30,422.10 C361.61,440.12 340.37,448.10 315.38,446.48 L 305.27 445.83 L 304.80 453.88 C304.41,460.59 303.72,463.18 300.66,469.36 C298.65,473.45 294.95,479.06 292.45,481.84 C284.01,491.23 287.83,490.56 233.00,492.38 C206.32,493.27 170.55,494.24 153.50,494.53 C136.45,494.82 120.25,495.26 117.50,495.50 C114.63,495.76 111.44,495.42 110.00,494.72 ZM 284.33 481.90 C294.16,475.40 302.42,461.93 303.61,450.47 L 304.24 444.44 L 296.13 442.10 C287.93,439.73 275.64,433.40 269.95,428.61 C266.20,425.45 266.75,425.32 272.19,428.09 C280.22,432.19 294.54,435.10 307.00,435.16 C343.23,435.32 371.60,415.53 385.05,380.69 C399.93,342.18 397.50,306.41 376.52,255.00 C371.56,242.86 349.21,193.87 348.11,192.73 C347.70,192.31 344.02,193.50 339.93,195.37 C335.84,197.25 329.96,199.34 326.87,200.03 C320.64,201.40 301.15,200.91 297.05,199.28 C295.33,198.60 297.70,198.45 305.06,198.78 C317.46,199.33 324.76,197.80 336.00,192.32 C367.99,176.71 374.88,132.45 349.26,107.13 C340.71,98.68 334.32,95.35 312.24,87.84 C289.52,80.12 280.44,75.42 271.79,66.92 C264.99,60.25 259.72,51.31 258.38,44.21 C258.04,42.40 257.46,41.05 257.08,41.21 C256.71,41.37 242.19,50.42 224.81,61.33 L 193.21 81.16 L 194.67 87.33 C204.86,130.61 205.00,178.99 195.05,219.60 C188.29,247.20 179.31,269.16 149.73,330.50 C129.97,371.47 123.49,389.05 117.79,417.18 C115.81,426.99 115.51,431.29 115.60,449.50 C115.67,464.08 116.14,472.18 117.12,476.00 L 118.54 481.50 L 151.02 482.24 C193.89,483.23 258.07,484.62 270.08,484.83 C279.25,484.99 279.86,484.87 284.33,481.90 ZM 296.50 384.83 C283.98,377.00 268.46,363.26 260.47,352.93 C239.45,325.75 239.94,295.04 261.63,281.27 C273.69,273.61 288.85,273.16 300.85,280.11 C304.16,282.03 304.22,282.03 307.43,280.04 C309.21,278.94 313.55,277.31 317.08,276.40 C334.30,271.99 351.33,280.07 361.57,297.50 C364.27,302.11 364.50,303.25 364.45,312.00 C364.41,319.62 363.88,322.94 361.80,328.76 C355.35,346.75 338.44,366.49 317.19,380.85 C307.02,387.72 306.99,387.15 317.02,376.98 C354.33,339.14 362.99,303.14 337.78,290.58 C328.52,285.96 318.74,287.39 310.86,294.51 C306.28,298.65 304.43,298.82 299.90,295.54 C290.24,288.55 283.99,286.99 275.50,289.46 C261.23,293.60 254.85,306.75 258.48,324.50 C261.68,340.14 272.42,357.10 291.88,377.25 C297.59,383.16 302.09,387.99 301.88,387.98 C301.67,387.97 299.25,386.55 296.50,384.83 Z" fill="rgba(0,0,0,1)"/>
</g>
</svg>