<svg xmlns="http://www.w3.org/2000/svg" width="512" height="512" viewBox="0 0 512 512">
<g>
<path d="M 196.97 494.22 C194.96,495.86 191.69,496.00 156.52,496.00 C119.89,496.00 118.16,495.92 115.75,494.02 C114.36,492.92 112.96,490.98 112.64,489.68 C112.24,488.09 117.54,471.56 129.09,438.42 C138.47,411.51 148.54,382.52 151.49,374.00 C156.58,359.22 170.05,320.56 174.09,309.09 C175.85,304.10 176.00,300.44 176.00,261.61 L 176.00 219.53 L 137.72 257.77 C104.69,290.76 99.04,296.00 96.49,296.00 C93.99,296.00 90.16,292.62 70.77,273.23 C53.35,255.80 48.00,249.87 48.00,247.98 C48.00,246.04 59.42,234.11 100.75,192.91 C153.01,140.80 153.58,140.28 162.00,136.20 C174.18,130.29 180.22,128.97 198.12,128.30 L 213.75 127.71 L 209.62 123.35 C196.14,109.07 189.97,88.69 193.33,69.51 C197.59,45.25 215.38,25.55 239.50,18.40 C247.69,15.97 265.25,16.00 273.50,18.44 C295.81,25.07 313.39,43.43 318.56,65.50 C319.76,70.62 320.07,75.32 319.71,83.00 C318.95,99.21 313.83,111.70 303.27,123.10 L 299.01 127.70 L 314.75 128.29 C332.91,128.97 339.05,130.31 351.00,136.18 C359.38,140.29 360.22,141.07 411.75,192.42 C460.60,241.10 464.00,244.72 464.00,247.95 C464.00,251.10 462.15,253.26 442.25,273.24 C430.29,285.25 419.52,295.33 418.32,295.63 C417.12,295.93 415.32,295.92 414.32,295.60 C413.32,295.28 395.62,278.14 375.00,257.51 C354.38,236.88 337.16,220.00 336.75,220.00 C336.34,220.00 336.00,238.39 336.00,260.87 L 336.00 301.73 L 372.00 393.70 C391.80,444.27 408.00,486.88 408.00,488.37 C408.00,489.93 406.95,492.14 405.55,493.55 L 403.09 496.00 L 364.68 496.00 C362.78,496.00 360.96,496.00 359.23,496.00 C331.75,496.01 324.87,496.02 321.90,492.61 C320.72,491.26 320.15,489.37 319.16,486.73 C318.08,483.85 307.42,456.52 295.46,426.00 C283.50,395.48 270.13,361.27 265.74,350.00 C261.36,338.73 257.46,329.16 257.08,328.75 C256.70,328.33 251.28,342.73 245.02,360.75 C203.97,479.01 199.12,492.48 196.97,494.22 ZM 132.00 479.34 C132.00,479.70 144.29,480.00 159.32,480.00 L 186.63 480.00 L 196.44 451.75 C220.72,381.78 227.33,362.78 230.94,352.50 C233.07,346.45 238.06,332.19 242.02,320.80 C246.10,309.08 250.07,299.35 251.16,298.35 C253.88,295.90 259.82,296.06 261.91,298.64 C263.45,300.54 271.62,321.09 316.76,436.50 L 333.57 479.50 L 360.79 479.77 C375.75,479.91 388.00,479.65 388.00,479.18 C388.00,478.43 370.63,433.72 351.02,384.00 C347.23,374.38 338.69,352.61 332.06,335.64 L 320.00 304.78 L 320.00 198.11 L 322.25 195.55 C323.49,194.15 326.00,192.71 327.83,192.36 C331.12,191.73 331.72,192.28 373.85,234.36 L 416.53 277.00 L 431.01 262.47 L 445.50 247.94 L 398.50 201.18 C348.40,151.32 347.62,150.66 333.50,146.34 C327.92,144.63 322.58,144.50 256.50,144.50 C190.42,144.50 185.08,144.63 179.50,146.34 C165.32,150.69 164.63,151.26 114.50,201.17 L 67.50 247.96 L 81.99 262.48 L 96.47 277.00 L 138.15 235.34 C161.08,212.42 180.56,193.26 181.46,192.77 C182.35,192.27 184.41,192.15 186.04,192.51 C187.16,192.75 188.07,192.90 188.80,193.33 C192.00,195.21 192.00,202.54 192.00,247.11 C192.00,248.64 192.00,250.21 192.00,251.83 L 192.00 306.22 L 162.00 392.45 C145.50,439.88 132.00,478.98 132.00,479.34 ZM 242.00 125.77 C250.59,128.79 264.49,128.48 273.32,125.06 C291.32,118.08 304.00,99.72 304.00,80.60 C304.00,58.39 291.16,41.01 269.50,33.90 C262.89,31.73 247.57,32.31 240.50,35.00 C225.87,40.56 215.93,50.56 210.78,64.89 C207.98,72.69 207.98,87.31 210.78,95.11 C216.05,109.76 226.95,120.47 242.00,125.77 ZM 263.69 259.84 C261.04,262.13 257.84,264.00 256.57,264.00 C253.43,264.00 251.17,262.13 230.80,242.71 C210.79,223.63 208.60,220.45 208.66,210.55 C208.69,203.38 210.53,198.63 215.32,193.33 C220.84,187.22 227.01,184.63 235.98,184.65 C242.08,184.66 244.46,185.16 248.56,187.26 C251.35,188.68 254.23,190.57 254.96,191.46 C256.18,192.93 256.48,192.89 258.41,191.08 C265.36,184.56 280.55,182.50 289.13,186.93 C298.83,191.93 303.97,200.11 303.99,210.55 C304.01,220.35 301.33,224.40 283.76,241.14 C275.37,249.13 266.34,257.55 263.69,259.84 ZM 241.79 231.18 L 256.38 244.87 L 268.02 233.98 C285.40,217.72 288.00,214.68 288.00,210.60 C288.00,206.31 284.10,201.40 279.97,200.49 C275.08,199.42 271.74,200.78 265.14,206.53 C261.35,209.84 257.94,212.00 256.52,212.00 C255.10,212.00 251.54,209.76 247.61,206.41 C242.83,202.32 240.04,200.69 237.28,200.36 C231.93,199.70 226.92,202.51 225.18,207.15 C223.11,212.64 225.12,215.55 241.79,231.18 ZM 104.24 415.68 C102.57,417.78 100.12,420.51 98.80,421.73 L 96.41 423.97 L 90.55 418.06 L 84.70 412.14 L 90.10 407.11 C93.07,404.34 95.97,402.06 96.54,402.04 C97.11,402.02 99.76,404.22 102.43,406.93 L 107.28 411.86 ZM 487.39 275.42 C486.78,277.01 485.56,277.11 476.25,276.27 L 472.00 275.89 L 472.00 260.00 L 478.42 260.00 C487.81,260.00 488.00,260.15 488.00,267.53 C488.00,271.00 487.73,274.55 487.39,275.42 ZM 280.72 486.61 C280.51,486.82 276.95,487.28 272.82,487.63 L 265.31 488.27 L 264.66 484.38 C264.31,482.25 264.02,478.59 264.01,476.25 L 264.00 472.00 L 268.25 471.99 C270.59,471.98 274.12,471.71 276.10,471.38 L 279.70 470.79 L 280.40 478.51 C280.79,482.75 280.93,486.40 280.72,486.61 ZM 427.00 412.49 C427.00,413.08 424.62,415.92 421.72,418.78 L 416.44 424.00 L 410.72 418.22 L 404.99 412.44 L 410.45 407.05 C413.33,404.20 414.70,402.70 416.13,402.64 C417.58,402.58 419.09,403.99 422.28,406.99 C422.59,407.28 422.91,407.58 423.25,407.90 C425.31,409.83 427.00,411.89 427.00,412.49 ZM 421.46 94.83 C420.93,95.29 418.22,97.75 415.43,100.30 L 410.36 104.93 L 405.05 99.55 L 399.74 94.17 L 404.56 88.59 C407.21,85.51 409.87,83.00 410.47,83.00 C412.36,83.00 422.49,93.92 421.46,94.83 ZM 39.75 275.45 C36.12,276.58 25.84,276.73 25.52,275.66 C25.32,275.02 24.93,271.24 24.64,267.25 L 24.12 260.00 L 39.75 260.00 L 40.38 263.12 C41.43,268.42 41.10,275.03 39.75,275.45 ZM 365.11 60.75 C363.25,64.19 361.45,66.98 361.11,66.95 C360.44,66.90 348.76,61.00 348.07,60.36 C347.63,59.96 354.10,46.00 354.72,46.00 C355.99,46.00 369.07,53.24 368.82,53.80 C368.64,54.19 366.97,57.32 365.11,60.75 ZM 158.48 63.79 C154.90,65.55 151.81,67.00 151.62,67.00 C151.34,67.00 145.29,56.27 144.18,53.80 C143.86,53.09 157.96,45.59 158.48,46.19 C159.23,47.02 165.00,59.05 165.00,59.76 C165.00,60.20 162.07,62.02 158.48,63.79 ZM 392.34 78.00 C389.78,81.30 387.41,83.97 387.09,83.93 C386.77,83.89 384.90,82.66 382.94,81.18 C380.99,79.71 378.33,77.80 377.03,76.94 L 374.67 75.37 L 378.87 69.19 C381.18,65.78 383.55,63.00 384.13,63.00 C385.16,63.00 397.00,70.95 397.00,71.64 C397.00,71.84 394.90,74.70 392.34,78.00 ZM 80.08 394.44 C76.82,396.95 74.01,398.99 73.83,398.97 C73.09,398.91 65.00,387.15 65.00,386.15 C65.00,385.10 76.90,376.49 77.42,377.16 C81.28,382.16 86.00,388.83 86.00,389.28 C86.00,389.61 83.33,391.93 80.08,394.44 ZM 454.65 151.45 C451.16,153.40 448.11,155.00 447.86,155.00 C447.20,155.00 439.69,141.97 440.13,141.58 C441.67,140.19 452.11,134.00 452.90,134.00 C453.80,134.00 461.00,145.82 461.00,147.30 C461.00,147.63 458.14,149.50 454.65,151.45 ZM 443.50 392.89 C441.03,396.25 438.87,399.00 438.71,399.00 C438.55,399.00 435.66,396.90 432.30,394.33 L 426.18 389.65 L 430.29 383.83 C432.55,380.62 434.99,378.00 435.71,378.00 C437.32,378.00 448.00,384.98 448.00,386.03 C448.00,386.44 445.98,389.53 443.50,392.89 ZM 474.19 178.18 C473.81,178.56 470.43,179.98 466.68,181.34 C460.53,183.56 459.80,183.64 459.28,182.15 C458.96,181.24 457.70,177.97 456.48,174.89 L 454.25 169.27 L 461.30 166.14 C465.17,164.42 468.51,163.18 468.71,163.38 C469.95,164.61 474.76,177.62 474.19,178.18 ZM 69.38 147.93 C67.39,151.27 65.26,153.99 64.63,153.97 C62.97,153.93 52.00,147.84 52.00,146.95 C52.00,146.28 58.68,133.99 59.49,133.18 C59.84,132.83 73.00,140.95 73.00,141.52 C73.00,141.70 71.37,144.59 69.38,147.93 ZM 41.26 236.75 L 40.73 244.00 L 33.33 244.00 C27.55,244.00 25.81,243.66 25.34,242.44 C24.74,240.88 25.73,227.93 26.51,227.16 C26.94,226.73 40.98,228.63 41.49,229.18 C41.66,229.36 41.55,232.76 41.26,236.75 ZM 48.12 338.83 C45.16,340.02 42.16,341.00 41.46,341.00 C39.69,341.00 34.69,326.02 36.30,325.53 C36.96,325.33 40.33,324.25 43.79,323.13 L 50.09 321.10 L 51.09 323.80 C51.63,325.29 52.81,328.43 53.70,330.80 C54.64,333.30 54.93,335.42 54.40,335.88 C53.91,336.31 51.08,337.64 48.12,338.83 ZM 62.63 367.47 L 62.29 367.65 C57.46,370.36 56.10,371.12 55.25,370.74 C54.90,370.58 54.63,370.23 54.24,369.75 C52.84,368.01 48.00,358.26 48.00,357.18 C48.00,356.29 59.60,350.99 61.54,351.00 C62.10,351.00 64.01,353.91 65.76,357.47 L 68.95 363.93 ZM 474.50 334.58 C473.02,338.66 471.73,341.95 471.65,341.89 C471.57,341.83 468.29,340.41 464.36,338.74 L 457.23 335.71 L 459.25 329.60 C460.35,326.25 461.63,323.09 462.09,322.59 C463.04,321.55 475.69,324.68 476.62,326.19 C476.94,326.72 475.99,330.49 474.50,334.58 ZM 108.43 99.07 C105.76,101.78 103.09,104.00 102.50,104.00 C101.91,104.00 99.08,101.62 96.21,98.72 L 91.00 93.43 L 96.28 88.22 C99.19,85.35 102.06,83.00 102.66,83.00 C103.26,83.00 105.90,85.51 108.52,88.57 L 113.28 94.15 ZM 483.52 302.55 C482.61,306.65 481.56,309.95 481.18,309.89 C477.29,309.26 468.31,306.70 467.64,306.04 C467.17,305.56 467.35,302.00 468.06,298.03 C469.22,291.56 469.54,290.92 471.42,291.38 C472.56,291.66 475.87,292.20 478.77,292.58 C481.67,292.95 484.30,293.68 484.61,294.18 C484.92,294.69 484.43,298.45 483.52,302.55 ZM 487.25 243.08 C486.23,244.00 473.08,244.94 472.57,244.12 C472.35,243.76 471.85,240.26 471.46,236.34 L 470.76 229.22 L 476.13 228.56 C479.08,228.19 482.67,227.67 484.10,227.40 C486.68,226.91 486.70,226.98 487.35,234.65 C487.71,238.91 487.67,242.70 487.25,243.08 ZM 131.79 79.84 C128.65,82.13 125.90,84.00 125.66,84.00 C125.26,84.00 118.08,74.68 116.71,72.38 C116.05,71.27 126.77,63.00 128.87,63.00 C129.91,63.00 138.50,74.90 137.84,75.42 C137.65,75.56 134.93,77.55 131.79,79.84 ZM 46.27 205.81 C44.83,211.93 44.28,212.98 42.54,212.86 C39.33,212.64 30.22,210.56 29.56,209.90 C29.23,209.56 29.73,206.07 30.67,202.15 C32.11,196.15 32.72,195.00 34.44,195.01 C36.55,195.02 46.91,197.58 47.58,198.25 C47.79,198.45 47.20,201.86 46.27,205.81 ZM 482.97 210.52 C480.90,211.80 468.91,213.67 468.38,212.80 C467.74,211.77 465.09,201.20 465.04,199.44 C464.99,198.03 478.88,194.46 479.94,195.61 C481.18,196.96 483.82,209.99 482.97,210.52 ZM 55.35 176.75 C53.89,180.19 52.43,182.96 52.10,182.92 C50.62,182.73 39.08,178.43 38.53,177.87 C37.82,177.15 42.78,164.25 44.07,163.45 C45.25,162.73 57.97,168.26 57.99,169.50 C58.00,170.05 56.81,173.31 55.35,176.75 ZM 86.96 122.20 C84.66,125.11 82.49,127.61 82.14,127.75 C81.14,128.14 70.00,119.97 70.00,118.85 C70.00,117.24 78.36,107.00 79.68,107.00 C80.90,107.00 90.24,114.62 90.82,116.09 C90.99,116.53 89.25,119.28 86.96,122.20 ZM 437.59 123.84 C434.56,126.13 431.67,128.00 431.16,128.00 C430.66,128.00 428.31,125.44 425.94,122.31 L 421.65 116.62 L 427.01 111.81 C429.97,109.16 432.86,107.02 433.44,107.04 C434.55,107.09 441.58,115.74 442.54,118.24 C442.90,119.18 441.16,121.15 437.59,123.84 ZM 45.45 305.40 C45.53,306.84 30.92,309.97 30.45,308.62 C29.51,305.94 28.05,298.29 28.02,295.93 C28.00,293.50 28.41,293.29 35.23,292.24 C40.46,291.43 42.64,291.42 43.13,292.21 C43.69,293.12 45.28,302.15 45.45,305.40 ZM 461.23 364.75 C459.44,368.19 457.42,370.97 456.74,370.92 C455.55,370.85 445.82,365.22 444.48,363.83 C443.53,362.86 450.27,351.03 451.78,351.01 C453.68,350.99 465.19,356.98 464.81,357.80 C464.63,358.18 463.02,361.31 461.23,364.75 ZM 247.79 479.75 L 247.50 487.50 L 243.00 487.64 C240.52,487.72 236.93,487.49 235.00,487.14 C231.16,486.44 231.14,486.31 232.59,475.13 L 233.16 470.75 L 237.72 471.38 C240.23,471.72 243.59,472.00 245.18,472.00 L 248.08 472.00 Z" fill="rgb(1,1,1)"/>
<path d="M 0.00 256.00 L 0.00 0.00 L 256.00 0.00 L 512.00 0.00 L 512.00 256.00 L 512.00 512.00 L 256.00 512.00 L 0.00 512.00 L 0.00 256.00 ZM 196.97 494.22 C199.12,492.48 203.97,479.01 245.02,360.75 C251.28,342.73 256.70,328.33 257.08,328.75 C257.46,329.16 261.36,338.73 265.74,350.00 C270.13,361.27 283.50,395.48 295.46,426.00 C307.42,456.52 318.08,483.85 319.16,486.73 C322.81,496.44 320.66,496.00 364.68,496.00 L 403.09 496.00 L 405.55 493.55 C406.95,492.14 408.00,489.93 408.00,488.37 C408.00,486.88 391.80,444.27 372.00,393.70 L 336.00 301.73 L 336.00 260.87 C336.00,238.39 336.34,220.00 336.75,220.00 C337.16,220.00 354.38,236.88 375.00,257.51 C395.62,278.14 413.32,295.28 414.32,295.60 C415.32,295.92 417.12,295.93 418.32,295.63 C419.52,295.33 430.29,285.25 442.25,273.24 C462.15,253.26 464.00,251.10 464.00,247.95 C464.00,244.72 460.60,241.10 411.75,192.42 C360.22,141.07 359.38,140.29 351.00,136.18 C339.05,130.31 332.91,128.97 314.75,128.29 L 299.01 127.70 L 303.27 123.10 C313.83,111.70 318.95,99.21 319.71,83.00 C320.07,75.32 319.76,70.62 318.56,65.50 C313.39,43.43 295.81,25.07 273.50,18.44 C265.25,16.00 247.69,15.97 239.50,18.40 C215.38,25.55 197.59,45.25 193.33,69.51 C189.97,88.69 196.14,109.07 209.62,123.35 L 213.75 127.71 L 198.12 128.30 C180.22,128.97 174.18,130.29 162.00,136.20 C153.58,140.28 153.01,140.80 100.75,192.91 C59.42,234.11 48.00,246.04 48.00,247.98 C48.00,249.87 53.35,255.80 70.77,273.23 C90.16,292.62 93.99,296.00 96.49,296.00 C99.04,296.00 104.69,290.76 137.72,257.77 L 176.00 219.53 L 176.00 261.61 C176.00,300.44 175.85,304.10 174.09,309.09 C170.05,320.56 156.58,359.22 151.49,374.00 C148.54,382.52 138.47,411.51 129.09,438.42 C117.54,471.56 112.24,488.09 112.64,489.68 C112.96,490.98 114.36,492.92 115.75,494.02 C118.16,495.92 119.89,496.00 156.52,496.00 C191.69,496.00 194.96,495.86 196.97,494.22 ZM 247.79 479.75 L 248.08 472.00 L 245.18 472.00 C243.59,472.00 240.23,471.72 237.72,471.38 L 233.16 470.75 L 232.59 475.13 C231.14,486.31 231.16,486.44 235.00,487.14 C236.93,487.49 240.52,487.72 243.00,487.64 L 247.50 487.50 L 247.79 479.75 ZM 280.72 486.61 C280.93,486.40 280.79,482.75 280.40,478.51 L 279.70 470.79 L 276.10 471.38 C274.12,471.71 270.59,471.98 268.25,471.99 L 264.00 472.00 L 264.01 476.25 C264.02,478.59 264.31,482.25 264.66,484.38 L 265.31 488.27 L 272.82 487.63 C276.95,487.28 280.51,486.82 280.72,486.61 ZM 104.24 415.68 L 107.28 411.86 L 102.43 406.93 C99.76,404.22 97.11,402.02 96.54,402.04 C95.97,402.06 93.07,404.34 90.10,407.11 L 84.70 412.14 L 90.55 418.06 L 96.41 423.97 L 98.80 421.73 C100.12,420.51 102.57,417.78 104.24,415.68 ZM 427.00 412.49 C427.00,411.89 425.31,409.83 423.25,407.90 C415.88,401.00 416.53,401.05 410.45,407.05 L 404.99 412.44 L 410.72 418.22 L 416.44 424.00 L 421.72 418.78 C424.62,415.92 427.00,413.08 427.00,412.49 ZM 80.08 394.44 C83.33,391.93 86.00,389.61 86.00,389.28 C86.00,388.83 81.28,382.16 77.42,377.16 C76.90,376.49 65.00,385.10 65.00,386.15 C65.00,387.15 73.09,398.91 73.83,398.97 C74.01,398.99 76.82,396.95 80.08,394.44 ZM 443.50 392.89 C445.98,389.53 448.00,386.44 448.00,386.03 C448.00,384.98 437.32,378.00 435.71,378.00 C434.99,378.00 432.55,380.62 430.29,383.83 L 426.18 389.65 L 432.30 394.33 C435.66,396.90 438.55,399.00 438.71,399.00 C438.87,399.00 441.03,396.25 443.50,392.89 ZM 62.63 367.47 L 68.95 363.93 L 65.76 357.47 C64.01,353.91 62.10,351.00 61.54,351.00 C59.60,350.99 48.00,356.29 48.00,357.18 C48.00,358.26 52.84,368.01 54.24,369.75 C55.60,371.44 55.46,371.47 62.63,367.47 ZM 461.23 364.75 C463.02,361.31 464.63,358.18 464.81,357.80 C465.19,356.98 453.68,350.99 451.78,351.01 C450.27,351.03 443.53,362.86 444.48,363.83 C445.82,365.22 455.55,370.85 456.74,370.92 C457.42,370.97 459.44,368.19 461.23,364.75 ZM 474.50 334.58 C475.99,330.49 476.94,326.72 476.62,326.19 C475.69,324.68 463.04,321.55 462.09,322.59 C461.63,323.09 460.35,326.25 459.25,329.60 L 457.23 335.71 L 464.36 338.74 C468.29,340.41 471.57,341.83 471.65,341.89 C471.73,341.95 473.02,338.66 474.50,334.58 ZM 48.12 338.83 C51.08,337.64 53.91,336.31 54.40,335.88 C54.93,335.42 54.64,333.30 53.70,330.80 C52.81,328.43 51.63,325.29 51.09,323.80 L 50.09 321.10 L 43.79 323.13 C40.33,324.25 36.96,325.33 36.30,325.53 C34.69,326.02 39.69,341.00 41.46,341.00 C42.16,341.00 45.16,340.02 48.12,338.83 ZM 45.45 305.40 C45.28,302.15 43.69,293.12 43.13,292.21 C42.64,291.42 40.46,291.43 35.23,292.24 C28.41,293.29 28.00,293.50 28.02,295.93 C28.05,298.29 29.51,305.94 30.45,308.62 C30.92,309.97 45.53,306.84 45.45,305.40 ZM 483.52 302.55 C484.43,298.45 484.92,294.69 484.61,294.18 C484.30,293.68 481.67,292.95 478.77,292.58 C475.87,292.20 472.56,291.66 471.42,291.38 C469.54,290.92 469.22,291.56 468.06,298.03 C467.35,302.00 467.17,305.56 467.64,306.04 C468.31,306.70 477.29,309.26 481.18,309.89 C481.56,309.95 482.61,306.65 483.52,302.55 ZM 39.75 275.45 C41.10,275.03 41.43,268.42 40.38,263.12 L 39.75 260.00 L 31.93 260.00 L 24.12 260.00 L 24.64 267.25 C24.93,271.24 25.32,275.02 25.52,275.66 C25.84,276.73 36.12,276.58 39.75,275.45 ZM 487.39 275.42 C487.73,274.55 488.00,271.00 488.00,267.53 C488.00,260.15 487.81,260.00 478.42,260.00 L 472.00 260.00 L 472.00 267.94 L 472.00 275.89 L 476.25 276.27 C485.56,277.11 486.78,277.01 487.39,275.42 ZM 487.25 243.08 C487.67,242.70 487.71,238.91 487.35,234.65 C486.70,226.98 486.68,226.91 484.10,227.40 C482.67,227.67 479.08,228.19 476.13,228.56 L 470.76 229.22 L 471.46 236.34 C471.85,240.26 472.35,243.76 472.57,244.12 C473.08,244.94 486.23,244.00 487.25,243.08 ZM 41.26 236.75 C41.55,232.76 41.66,229.36 41.49,229.18 C40.98,228.63 26.94,226.73 26.51,227.16 C25.73,227.93 24.74,240.88 25.34,242.44 C25.81,243.66 27.55,244.00 33.33,244.00 L 40.73 244.00 L 41.26 236.75 ZM 482.97 210.52 C483.82,209.99 481.18,196.96 479.94,195.61 C478.88,194.46 464.99,198.03 465.04,199.44 C465.09,201.20 467.74,211.77 468.38,212.80 C468.91,213.67 480.90,211.80 482.97,210.52 ZM 46.27 205.81 C47.20,201.86 47.79,198.45 47.58,198.25 C46.91,197.58 36.55,195.02 34.44,195.01 C32.72,195.00 32.11,196.15 30.67,202.15 C29.73,206.07 29.23,209.56 29.56,209.90 C30.22,210.56 39.33,212.64 42.54,212.86 C44.28,212.98 44.83,211.93 46.27,205.81 ZM 474.19 178.18 C474.76,177.62 469.95,164.61 468.71,163.38 C468.51,163.18 465.17,164.42 461.30,166.14 L 454.25 169.27 L 456.48 174.89 C457.70,177.97 458.96,181.24 459.28,182.15 C459.80,183.64 460.53,183.56 466.68,181.34 C470.43,179.98 473.81,178.56 474.19,178.18 ZM 55.35 176.75 C56.81,173.31 58.00,170.05 57.99,169.50 C57.97,168.26 45.25,162.73 44.07,163.45 C42.78,164.25 37.82,177.15 38.53,177.87 C39.08,178.43 50.62,182.73 52.10,182.92 C52.43,182.96 53.89,180.19 55.35,176.75 ZM 454.65 151.45 C458.14,149.50 461.00,147.63 461.00,147.30 C461.00,145.82 453.80,134.00 452.90,134.00 C452.11,134.00 441.67,140.19 440.13,141.58 C439.69,141.97 447.20,155.00 447.86,155.00 C448.11,155.00 451.16,153.40 454.65,151.45 ZM 69.38 147.93 C71.37,144.59 73.00,141.70 73.00,141.52 C73.00,140.95 59.84,132.83 59.49,133.18 C58.68,133.99 52.00,146.28 52.00,146.95 C52.00,147.84 62.97,153.93 64.63,153.97 C65.26,153.99 67.39,151.27 69.38,147.93 ZM 86.96 122.20 C89.25,119.28 90.99,116.53 90.82,116.09 C90.24,114.62 80.90,107.00 79.68,107.00 C78.36,107.00 70.00,117.24 70.00,118.85 C70.00,119.97 81.14,128.14 82.14,127.75 C82.49,127.61 84.66,125.11 86.96,122.20 ZM 437.59 123.84 C441.16,121.15 442.90,119.18 442.54,118.24 C441.58,115.74 434.55,107.09 433.44,107.04 C432.86,107.02 429.97,109.16 427.01,111.81 L 421.65 116.62 L 425.94 122.31 C428.31,125.44 430.66,128.00 431.16,128.00 C431.67,128.00 434.56,126.13 437.59,123.84 ZM 421.46 94.83 C422.49,93.92 412.36,83.00 410.47,83.00 C409.87,83.00 407.21,85.51 404.56,88.59 L 399.74 94.17 L 405.05 99.55 L 410.36 104.93 L 415.43 100.30 C418.22,97.75 420.93,95.29 421.46,94.83 ZM 108.43 99.07 L 113.28 94.15 L 108.52 88.57 C105.90,85.51 103.26,83.00 102.66,83.00 C102.06,83.00 99.19,85.35 96.28,88.22 L 91.00 93.43 L 96.21 98.72 C99.08,101.62 101.91,104.00 102.50,104.00 C103.09,104.00 105.76,101.78 108.43,99.07 ZM 131.79 79.84 C134.93,77.55 137.65,75.56 137.84,75.42 C138.50,74.90 129.91,63.00 128.87,63.00 C126.77,63.00 116.05,71.27 116.71,72.38 C118.08,74.68 125.26,84.00 125.66,84.00 C125.90,84.00 128.65,82.13 131.79,79.84 ZM 392.34 78.00 C394.90,74.70 397.00,71.84 397.00,71.64 C397.00,70.95 385.16,63.00 384.13,63.00 C383.55,63.00 381.18,65.78 378.87,69.19 L 374.67 75.37 L 377.03 76.94 C378.33,77.80 380.99,79.71 382.94,81.18 C384.90,82.66 386.77,83.89 387.09,83.93 C387.41,83.97 389.78,81.30 392.34,78.00 ZM 158.48 63.79 C162.07,62.02 165.00,60.20 165.00,59.76 C165.00,59.05 159.23,47.02 158.48,46.19 C157.96,45.59 143.86,53.09 144.18,53.80 C145.29,56.27 151.34,67.00 151.62,67.00 C151.81,67.00 154.90,65.55 158.48,63.79 ZM 365.11 60.75 C366.97,57.32 368.64,54.19 368.82,53.80 C369.07,53.24 355.99,46.00 354.72,46.00 C354.10,46.00 347.63,59.96 348.07,60.36 C348.76,61.00 360.44,66.90 361.11,66.95 C361.45,66.98 363.25,64.19 365.11,60.75 ZM 132.00 479.34 C132.00,478.98 145.50,439.88 162.00,392.45 L 192.00 306.22 L 192.00 251.83 C192.00,192.16 192.17,193.86 186.04,192.51 C184.41,192.15 182.35,192.27 181.46,192.77 C180.56,193.26 161.08,212.42 138.15,235.34 L 96.47 277.00 L 81.99 262.48 L 67.50 247.96 L 114.50 201.17 C164.63,151.26 165.32,150.69 179.50,146.34 C185.08,144.63 190.42,144.50 256.50,144.50 C322.58,144.50 327.92,144.63 333.50,146.34 C347.62,150.66 348.40,151.32 398.50,201.18 L 445.50 247.94 L 431.01 262.47 L 416.53 277.00 L 373.85 234.36 C331.72,192.28 331.12,191.73 327.83,192.36 C326.00,192.71 323.49,194.15 322.25,195.55 L 320.00 198.11 L 320.00 251.45 L 320.00 304.78 L 332.06 335.64 C338.69,352.61 347.23,374.38 351.02,384.00 C370.63,433.72 388.00,478.43 388.00,479.18 C388.00,479.65 375.75,479.91 360.79,479.77 L 333.57 479.50 L 316.76 436.50 C271.62,321.09 263.45,300.54 261.91,298.64 C259.82,296.06 253.88,295.90 251.16,298.35 C250.07,299.35 246.10,309.08 242.02,320.80 C238.06,332.19 233.07,346.45 230.94,352.50 C227.33,362.78 220.72,381.78 196.44,451.75 L 186.63 480.00 L 159.32 480.00 C144.29,480.00 132.00,479.70 132.00,479.34 ZM 263.69 259.84 C266.34,257.55 275.37,249.13 283.76,241.14 C301.33,224.40 304.01,220.35 303.99,210.55 C303.97,200.11 298.83,191.93 289.13,186.93 C280.55,182.50 265.36,184.56 258.41,191.08 C256.48,192.89 256.18,192.93 254.96,191.46 C254.23,190.57 251.35,188.68 248.56,187.26 C244.46,185.16 242.08,184.66 235.98,184.65 C227.01,184.63 220.84,187.22 215.32,193.33 C210.53,198.63 208.69,203.38 208.66,210.55 C208.60,220.45 210.79,223.63 230.80,242.71 C251.17,262.13 253.43,264.00 256.57,264.00 C257.84,264.00 261.04,262.13 263.69,259.84 ZM 242.00 125.77 C226.95,120.47 216.05,109.76 210.78,95.11 C207.98,87.31 207.98,72.69 210.78,64.89 C215.93,50.56 225.87,40.56 240.50,35.00 C247.57,32.31 262.89,31.73 269.50,33.90 C291.16,41.01 304.00,58.39 304.00,80.60 C304.00,99.72 291.32,118.08 273.32,125.06 C264.49,128.48 250.59,128.79 242.00,125.77 ZM 241.79 231.18 C225.12,215.55 223.11,212.64 225.18,207.15 C226.92,202.51 231.93,199.70 237.28,200.36 C240.04,200.69 242.83,202.32 247.61,206.41 C251.54,209.76 255.10,212.00 256.52,212.00 C257.94,212.00 261.35,209.84 265.14,206.53 C271.74,200.78 275.08,199.42 279.97,200.49 C284.10,201.40 288.00,206.31 288.00,210.60 C288.00,214.68 285.40,217.72 268.02,233.98 L 256.38 244.87 L 241.79 231.18 Z" fill="rgb(254,254,254)"/>
</g>
</svg>