<svg xmlns="http://www.w3.org/2000/svg" width="512" height="512" viewBox="0 0 512 512">
<g>
<path d="M 246.72 510.56 C238.47,507.62 232.38,501.54 229.44,493.30 C228.40,490.37 228.08,480.96 228.04,452.12 L 228.00 414.75 L 225.25 415.28 C223.74,415.56 201.41,419.30 175.62,423.58 C132.65,430.72 128.53,431.25 126.12,429.90 C120.54,426.77 120.48,425.09 125.12,401.85 L 129.35 380.70 L 126.91 378.60 C125.56,377.44 99.89,355.71 69.86,330.30 C39.82,304.89 14.97,283.36 14.63,282.47 C14.28,281.57 14.00,279.38 14.00,277.61 C14.00,273.63 15.19,272.48 33.25,259.01 C40.81,253.37 47.00,248.55 47.00,248.30 C47.00,248.05 41.60,235.24 35.00,219.84 C27.38,202.06 23.00,190.56 23.00,188.37 C23.00,183.75 26.70,179.99 31.20,180.03 C33.02,180.04 46.74,183.58 61.70,187.88 L 88.91 195.71 L 96.50 176.61 C104.81,155.69 106.66,153.00 112.77,153.00 C116.23,153.00 118.08,154.64 146.83,183.25 C171.82,208.10 177.15,212.96 176.69,210.50 C176.38,208.85 169.80,179.02 162.06,144.21 C153.31,104.88 148.22,79.98 148.60,78.44 C149.41,75.23 153.57,72.00 156.88,72.01 C158.32,72.01 171.96,77.35 187.20,83.88 L 214.89 95.74 L 215.83 93.12 C238.61,29.60 248.29,4.26 250.57,2.25 C253.81,-0.62 258.19,-0.62 261.43,2.25 C263.71,4.26 273.39,29.60 296.17,93.12 L 297.11 95.74 L 324.80 83.88 C340.04,77.35 353.68,72.01 355.12,72.01 C358.43,72.00 362.59,75.23 363.40,78.44 C363.78,79.98 358.69,104.88 349.94,144.21 C342.20,179.02 335.62,208.85 335.31,210.50 C334.85,212.96 340.18,208.10 365.17,183.25 C393.92,154.64 395.77,153.00 399.23,153.00 C405.34,153.00 407.19,155.69 415.50,176.61 L 423.09 195.71 L 450.30 187.88 C465.26,183.58 478.98,180.04 480.80,180.03 C485.30,179.99 489.00,183.75 489.00,188.37 C489.00,190.56 484.62,202.06 477.00,219.84 C470.40,235.24 465.00,248.05 465.00,248.30 C465.00,248.55 471.19,253.37 478.75,259.01 C496.81,272.48 498.00,273.63 498.00,277.61 C498.00,279.38 497.71,281.58 497.37,282.49 C497.02,283.40 471.14,305.77 439.87,332.20 C407.76,359.33 383.00,380.96 383.01,381.88 C383.01,382.77 384.75,392.27 386.87,403.00 C390.99,423.83 390.97,426.51 386.67,429.52 C385.51,430.33 383.34,431.00 381.86,431.00 C380.37,431.00 357.52,427.40 331.06,423.00 C304.61,418.60 282.77,415.00 282.54,415.00 C282.30,415.00 281.97,432.21 281.80,453.25 C281.46,496.34 281.55,495.78 273.74,503.76 C266.68,510.97 255.64,513.75 246.72,510.56 ZM 258.39 493.04 C263.87,490.96 264.00,489.80 264.00,444.18 C264.00,402.92 264.03,402.23 266.13,399.56 C267.30,398.07 269.35,396.44 270.69,395.93 C272.46,395.25 286.03,397.16 321.19,403.03 C347.64,407.45 369.47,410.87 369.70,410.64 C369.93,410.40 368.67,402.85 366.89,393.85 C364.91,383.83 363.92,376.44 364.34,374.77 C364.85,372.75 379.29,359.96 420.07,325.44 L 475.11 278.84 L 460.70 268.01 C452.77,262.05 445.99,256.43 445.64,255.51 C444.21,251.77 445.41,247.88 454.63,226.38 C459.92,214.03 464.03,203.69 463.75,203.41 C463.47,203.13 453.76,205.62 442.17,208.95 C420.07,215.30 415.80,215.95 412.32,213.51 C410.98,212.58 407.70,205.75 403.41,194.99 L 396.61 177.95 L 360.00 214.47 L 323.39 251.00 L 319.15 251.00 C315.84,251.00 314.36,250.41 312.45,248.35 C311.10,246.90 310.00,244.65 310.00,243.35 C310.00,242.06 317.21,208.54 326.03,168.86 C334.85,129.19 341.93,96.62 341.78,96.48 C341.63,96.35 331.32,100.62 318.88,105.97 C306.44,111.32 295.27,115.96 294.06,116.27 C291.03,117.07 286.41,115.29 284.73,112.68 C283.96,111.48 277.32,93.96 269.99,73.75 C262.66,53.54 256.36,37.00 256.00,37.00 C255.64,37.00 249.34,53.54 242.01,73.75 C234.68,93.96 228.04,111.48 227.27,112.68 C225.59,115.29 220.97,117.07 217.94,116.27 C216.73,115.96 205.56,111.32 193.12,105.97 C180.68,100.62 170.37,96.35 170.22,96.48 C170.07,96.62 177.15,129.19 185.97,168.86 C194.79,208.54 202.00,242.06 202.00,243.35 C202.00,244.65 200.90,246.90 199.55,248.35 C197.64,250.41 196.16,251.00 192.85,251.00 L 188.61 251.00 L 152.00 214.47 L 115.39 177.95 L 108.59 194.99 C104.30,205.75 101.02,212.58 99.68,213.51 C96.20,215.95 91.93,215.30 69.83,208.95 C58.24,205.62 48.53,203.13 48.25,203.41 C47.97,203.69 52.08,214.03 57.37,226.38 C66.59,247.88 67.79,251.77 66.36,255.51 C66.01,256.43 59.24,262.05 51.32,268.00 L 36.92 278.82 L 46.71 287.21 C52.09,291.82 76.86,312.81 101.75,333.86 C133.90,361.04 147.18,372.87 147.65,374.73 C148.03,376.26 146.94,384.08 144.99,393.68 C143.18,402.67 141.93,410.26 142.23,410.56 C142.52,410.86 164.19,407.49 190.38,403.07 C224.96,397.24 238.65,395.30 240.40,395.96 C246.05,398.11 246.00,397.66 246.00,444.80 L 246.00 488.15 L 248.92 491.08 C252.00,494.15 254.24,494.62 258.39,493.04 Z" fill="rgba(0,0,0,1)"/>
</g>
</svg>