<svg xmlns="http://www.w3.org/2000/svg" width="512" height="512" viewBox="0 0 512 512">
<g>
<path d="M 32.44 503.07 C27.32,501.83 18.96,496.77 15.90,493.06 C14.31,491.14 12.00,487.52 10.76,485.03 L 8.50 480.50 L 8.50 312.00 L 8.50 143.50 L 10.98 138.50 C14.16,132.07 20.17,126.09 26.50,123.05 C30.70,121.04 33.46,120.58 43.75,120.21 L 56.00 119.76 L 56.00 114.25 C56.00,105.69 57.82,101.11 63.47,95.47 C73.58,85.35 86.42,85.35 96.53,95.47 C102.20,101.13 104.00,105.69 104.00,114.37 L 104.00 120.00 L 120.00 120.00 L 136.00 120.00 L 136.00 114.37 C136.00,105.69 137.80,101.13 143.47,95.47 C153.58,85.35 166.42,85.35 176.53,95.47 C182.20,101.14 184.00,105.69 184.00,114.38 L 184.00 120.02 L 224.25 119.76 L 264.50 119.50 L 265.27 112.50 C265.69,108.65 267.01,101.90 268.19,97.50 C288.06,23.48 370.00,-13.27 438.42,21.14 C470.42,37.24 493.74,67.80 501.62,104.00 C503.01,110.38 503.46,116.50 503.42,128.50 C503.38,142.32 503.01,145.95 500.74,155.11 C496.26,173.15 487.61,190.63 476.57,203.97 L 472.03 209.44 L 471.77 344.97 L 471.50 480.50 L 468.08 486.80 C464.29,493.80 461.17,496.81 453.61,500.81 L 448.50 503.50 L 242.00 503.65 C128.43,503.74 34.12,503.47 32.44,503.07 ZM 448.61 485.44 C450.13,484.30 452.30,482.13 453.44,480.62 C455.49,477.86 455.50,477.36 455.76,350.94 L 456.02 224.03 L 449.26 228.39 C428.15,242.00 409.11,247.52 383.50,247.47 C363.51,247.43 350.73,244.62 333.10,236.39 L 323.71 232.00 L 173.85 232.00 L 24.00 232.00 L 24.00 353.43 C24.00,437.02 24.33,475.75 25.07,477.68 C26.49,481.43 29.82,484.95 33.50,486.59 C35.98,487.70 72.13,487.89 241.18,487.71 L 445.85 487.50 L 448.61 485.44 ZM 400.62 230.47 C423.64,226.52 442.53,216.52 458.54,199.84 C467.42,190.58 471.72,184.59 476.74,174.50 C491.75,144.32 491.61,110.48 476.37,80.87 C470.70,69.86 466.81,64.44 458.33,55.68 C434.81,31.40 400.76,19.97 368.17,25.42 C356.04,27.45 347.34,30.29 336.50,35.75 C290.86,58.75 269.01,113.20 285.83,162.00 C302.13,209.29 351.73,238.88 400.62,230.47 ZM 296.65 209.99 C280.48,192.53 268.67,168.29 265.84,146.77 C265.25,142.22 264.60,137.94 264.41,137.25 C264.14,136.28 255.20,136.00 224.03,136.00 L 184.00 136.00 L 184.00 149.63 C184.00,166.60 183.05,170.01 176.53,176.53 C166.42,186.65 153.58,186.65 143.47,176.53 C136.95,170.01 136.00,166.60 136.00,149.63 L 136.00 136.00 L 120.00 136.00 L 104.00 136.00 L 104.00 149.63 C104.00,166.60 103.05,170.01 96.53,176.53 C86.42,186.65 73.58,186.65 63.47,176.53 C56.94,170.01 56.00,166.61 56.00,149.55 L 56.00 135.82 L 45.07 136.16 C33.26,136.53 31.04,137.40 26.56,143.38 C24.59,146.03 24.49,147.59 24.21,181.07 L 23.93 216.00 L 163.07 216.00 L 302.22 216.00 L 296.65 209.99 ZM 85.55 165.55 L 88.00 163.09 L 88.00 136.00 L 88.00 108.91 L 85.55 106.45 C82.30,103.21 77.70,103.21 74.45,106.45 L 72.00 108.91 L 72.00 136.00 L 72.00 163.09 L 74.45 165.55 C76.00,167.09 78.05,168.00 80.00,168.00 C81.95,168.00 84.00,167.09 85.55,165.55 ZM 165.55 165.55 L 168.00 163.09 L 168.00 136.00 L 168.00 108.91 L 165.55 106.45 C162.30,103.21 157.70,103.21 154.45,106.45 L 152.00 108.91 L 152.00 136.00 L 152.00 163.09 L 154.45 165.55 C156.00,167.09 158.05,168.00 160.00,168.00 C161.95,168.00 164.00,167.09 165.55,165.55 ZM 62.01 470.33 C39.43,462.43 32.74,434.21 49.48,417.48 C56.09,410.86 62.00,408.53 72.00,408.58 C78.66,408.61 81.48,409.09 85.03,410.82 C92.10,414.25 96.35,418.31 100.05,425.18 C103.16,430.94 103.46,432.25 103.48,440.00 C103.49,447.88 103.23,448.97 99.92,455.00 C92.30,468.84 76.27,475.32 62.01,470.33 ZM 78.33 454.64 C88.60,450.34 91.11,436.87 83.12,428.88 C71.88,417.65 53.47,427.71 56.43,443.47 C58.19,452.89 69.15,458.47 78.33,454.64 ZM 120.00 456.00 L 120.00 448.00 L 264.00 448.00 L 408.00 448.00 L 408.00 456.00 L 408.00 464.00 L 264.00 464.00 L 120.00 464.00 L 120.00 456.00 ZM 424.00 456.00 L 424.00 448.00 L 432.00 448.00 L 440.00 448.00 L 440.00 456.00 L 440.00 464.00 L 432.00 464.00 L 424.00 464.00 L 424.00 456.00 ZM 120.00 424.00 L 120.00 416.00 L 280.00 416.00 L 440.00 416.00 L 440.00 424.00 L 440.00 432.00 L 280.00 432.00 L 120.00 432.00 L 120.00 424.00 ZM 62.01 390.33 C39.43,382.43 32.74,354.21 49.48,337.48 C56.09,330.86 62.00,328.53 72.00,328.58 C78.66,328.61 81.48,329.09 85.03,330.82 C92.10,334.25 96.35,338.31 100.05,345.18 C103.16,350.94 103.46,352.25 103.48,360.00 C103.49,367.88 103.23,368.97 99.92,375.00 C92.30,388.84 76.27,395.32 62.01,390.33 ZM 78.33 374.64 C88.60,370.34 91.11,356.87 83.12,348.88 C71.88,337.65 53.47,347.71 56.43,363.47 C58.19,372.89 69.15,378.47 78.33,374.64 ZM 120.00 376.00 L 120.00 368.00 L 264.00 368.00 L 408.00 368.00 L 408.00 376.00 L 408.00 384.00 L 264.00 384.00 L 120.00 384.00 L 120.00 376.00 ZM 424.00 376.00 L 424.00 368.00 L 432.00 368.00 L 440.00 368.00 L 440.00 376.00 L 440.00 384.00 L 432.00 384.00 L 424.00 384.00 L 424.00 376.00 ZM 120.00 344.00 L 120.00 336.00 L 280.00 336.00 L 440.00 336.00 L 440.00 344.00 L 440.00 352.00 L 280.00 352.00 L 120.00 352.00 L 120.00 344.00 ZM 62.01 310.33 C39.43,302.43 32.74,274.21 49.48,257.48 C56.09,250.86 62.00,248.53 72.00,248.58 C78.66,248.61 81.48,249.09 85.03,250.82 C92.10,254.25 96.35,258.31 100.05,265.18 C103.16,270.94 103.46,272.25 103.48,280.00 C103.49,287.88 103.23,288.97 99.92,295.00 C92.30,308.84 76.27,315.32 62.01,310.33 ZM 78.33 294.64 C88.60,290.34 91.11,276.87 83.12,268.88 C71.88,257.65 53.47,267.71 56.43,283.47 C58.19,292.89 69.15,298.47 78.33,294.64 ZM 120.00 296.00 L 120.00 288.00 L 264.00 288.00 L 408.00 288.00 L 408.00 296.00 L 408.00 304.00 L 264.00 304.00 L 120.00 304.00 L 120.00 296.00 ZM 424.00 296.00 L 424.00 288.00 L 432.00 288.00 L 440.00 288.00 L 440.00 296.00 L 440.00 304.00 L 432.00 304.00 L 424.00 304.00 L 424.00 296.00 ZM 120.00 264.00 L 120.00 256.00 L 280.00 256.00 L 440.00 256.00 L 440.00 264.00 L 440.00 272.00 L 280.00 272.00 L 120.00 272.00 L 120.00 264.00 ZM 368.50 214.61 C350.20,211.08 335.21,203.13 322.04,189.96 C273.98,141.90 296.11,60.41 361.98,42.91 C366.12,41.81 374.00,40.65 379.50,40.34 C421.12,37.96 458.11,65.21 469.28,106.50 C472.17,117.19 472.33,138.10 469.59,148.42 C460.88,181.21 438.04,204.30 405.50,213.21 C396.34,215.72 377.88,216.42 368.50,214.61 ZM 405.50 196.60 C416.85,192.98 425.28,187.72 434.50,178.50 C443.66,169.35 448.91,160.96 452.68,149.50 C454.92,142.68 455.32,139.65 455.39,129.00 C455.49,114.34 454.01,107.71 447.87,95.27 C440.72,80.78 425.12,66.58 410.21,60.96 C389.79,53.28 366.34,55.08 348.00,65.72 C339.66,70.56 326.56,83.66 321.72,92.00 C308.25,115.20 309.10,144.63 323.89,167.21 C334.49,183.39 350.84,194.51 370.00,198.57 C379.77,200.64 395.56,199.76 405.50,196.60 ZM 359.99 151.49 L 354.55 145.98 L 365.28 135.23 L 376.00 124.47 L 376.00 102.23 L 376.00 80.00 L 384.00 80.00 L 392.00 80.00 L 392.00 105.66 L 392.00 131.33 L 379.30 144.16 C372.31,151.22 366.34,157.00 366.02,157.00 C365.69,157.00 362.98,154.52 359.99,151.49 Z" fill="rgba(0,0,0,1)"/>
</g>
</svg>