<svg xmlns="http://www.w3.org/2000/svg" width="512" height="512" viewBox="0 0 512 512">
<g>
<path d="M 96.00 510.69 C91.09,509.15 82.72,500.48 81.22,495.38 C79.45,489.39 79.45,22.61 81.22,16.62 C82.84,11.12 91.12,2.84 96.62,1.22 C102.07,-0.39 326.37,-0.56 330.68,1.05 C333.86,2.23 428.34,96.02 430.56,100.20 C431.79,102.51 432.00,125.32 431.99,259.20 L 431.99 415.50 L 414.69 442.99 C401.29,464.30 396.80,470.70 394.70,471.44 C388.84,473.50 387.67,472.20 369.31,442.99 L 352.01 415.50 L 352.01 302.20 L 352.00 188.91 L 354.45 186.45 C357.70,183.21 362.30,183.21 365.55,186.45 L 368.00 188.91 L 368.00 296.45 L 368.00 404.00 L 376.00 404.00 L 384.00 404.00 L 384.00 358.45 L 384.00 312.91 L 386.45 310.45 C389.70,307.21 394.30,307.21 397.55,310.45 L 400.00 312.91 L 400.00 358.45 L 400.00 404.00 L 408.00 404.00 L 416.00 404.00 L 416.00 258.04 L 416.00 112.09 L 376.17 111.79 L 336.34 111.50 L 331.45 108.47 C328.42,106.60 325.40,103.58 323.53,100.55 L 320.50 95.66 L 320.21 55.83 L 319.91 16.00 L 210.41 16.00 L 100.91 16.00 L 98.45 18.45 L 96.00 20.91 L 96.00 256.00 L 96.00 491.09 L 98.45 493.55 L 100.91 496.00 L 256.00 496.00 L 411.09 496.00 L 413.55 493.55 C415.92,491.17 416.00,490.62 416.00,477.12 L 416.00 463.15 L 424.00 450.38 L 432.00 437.60 L 432.00 464.44 C432.00,482.27 431.60,492.60 430.81,495.24 C430.16,497.42 427.68,501.37 425.30,504.01 C417.50,512.68 431.93,512.01 255.57,511.90 C144.84,511.83 98.48,511.48 96.00,510.69 ZM 401.43 434.00 L 409.94 420.50 L 400.97 420.21 C396.04,420.05 387.97,420.05 383.04,420.21 L 374.08 420.50 L 382.73 434.27 C387.49,441.84 391.73,447.92 392.16,447.77 C392.58,447.62 396.76,441.42 401.43,434.00 ZM 404.00 95.74 C404.00,95.60 388.70,80.19 370.00,61.50 L 336.00 27.51 L 336.00 59.30 L 336.00 91.09 L 338.45 93.55 L 340.91 96.00 L 372.45 96.00 C389.80,96.00 404.00,95.89 404.00,95.74 ZM 142.45 457.55 C139.10,454.19 139.36,451.01 143.65,442.85 C146.43,437.56 148.29,435.33 151.48,433.46 C156.66,430.42 162.63,430.26 168.00,433.00 C170.16,434.10 172.28,435.00 172.72,435.00 C173.16,435.00 175.53,432.04 177.98,428.42 C180.44,424.79 183.22,421.42 184.16,420.92 C189.11,418.27 196.00,422.21 196.00,427.70 C196.01,431.47 185.88,446.30 181.41,449.06 C175.78,452.54 170.91,452.69 164.94,449.56 C162.11,448.08 159.67,447.01 159.52,447.19 C159.37,447.36 158.06,449.85 156.62,452.71 C152.73,460.45 147.24,462.33 142.45,457.55 ZM 134.45 393.55 C132.91,392.00 132.00,389.95 132.00,388.00 C132.00,386.05 132.91,384.00 134.45,382.45 L 136.91 380.00 L 190.00 380.00 L 243.09 380.00 L 245.55 382.45 C248.79,385.70 248.79,390.30 245.55,393.55 L 243.09 396.00 L 190.00 396.00 L 136.91 396.00 L 134.45 393.55 ZM 134.45 353.55 C132.91,352.00 132.00,349.95 132.00,348.00 C132.00,346.05 132.91,344.00 134.45,342.45 L 136.91 340.00 L 236.45 340.00 L 336.00 340.00 L 336.00 348.00 L 336.00 356.00 L 236.45 356.00 L 136.91 356.00 L 134.45 353.55 ZM 134.45 313.55 C132.91,312.00 132.00,309.95 132.00,308.00 C132.00,306.05 132.91,304.00 134.45,302.45 L 136.91 300.00 L 236.45 300.00 L 336.00 300.00 L 336.00 308.00 L 336.00 316.00 L 236.45 316.00 L 136.91 316.00 L 134.45 313.55 ZM 134.45 273.55 C132.91,272.00 132.00,269.95 132.00,268.00 C132.00,266.05 132.91,264.00 134.45,262.45 L 136.91 260.00 L 236.45 260.00 L 336.00 260.00 L 336.00 268.00 L 336.00 276.00 L 236.45 276.00 L 136.91 276.00 L 134.45 273.55 ZM 134.45 233.55 C132.91,232.00 132.00,229.95 132.00,228.00 C132.00,226.05 132.91,224.00 134.45,222.45 L 136.91 220.00 L 236.45 220.00 L 336.00 220.00 L 336.00 228.00 L 336.00 236.00 L 236.45 236.00 L 136.91 236.00 L 134.45 233.55 ZM 134.45 193.55 C132.91,192.00 132.00,189.95 132.00,188.00 C132.00,186.05 132.91,184.00 134.45,182.45 L 136.91 180.00 L 237.84 180.00 L 338.76 180.00 L 337.43 183.75 C336.69,185.81 336.07,189.41 336.04,191.75 L 336.00 196.00 L 236.45 196.00 L 136.91 196.00 L 134.45 193.55 ZM 152.45 145.55 C148.12,141.21 149.04,138.28 158.16,127.43 C167.49,116.34 167.49,118.13 158.11,106.81 C152.81,100.42 152.27,100.05 148.25,100.02 L 144.00 100.00 L 144.00 110.94 C144.00,120.98 143.81,122.11 141.66,124.61 C138.45,128.35 133.55,128.35 130.34,124.61 L 128.00 121.89 L 128.00 85.40 L 128.00 48.91 L 130.45 46.45 C132.82,44.09 133.42,44.00 146.27,44.00 C163.83,44.00 168.47,45.34 175.58,52.45 C179.71,56.57 181.24,59.01 182.56,63.54 C185.69,74.34 182.33,86.14 174.11,93.17 L 170.14 96.57 L 173.55 100.54 L 176.95 104.50 L 180.68 100.00 C187.86,91.35 193.68,86.00 195.93,86.00 C198.97,86.00 204.00,91.23 204.00,94.38 C204.00,96.74 201.10,100.87 191.32,112.43 C189.50,114.59 188.00,116.75 188.00,117.23 C188.00,117.71 191.60,122.39 196.00,127.62 C202.08,134.85 204.00,137.85 204.00,140.11 C204.00,146.01 196.24,150.22 191.77,146.75 C190.88,146.06 187.37,142.12 183.96,138.00 C180.56,133.88 177.49,130.41 177.14,130.29 C176.79,130.18 174.71,132.36 172.52,135.13 C164.35,145.46 161.51,148.00 158.11,148.00 C156.04,148.00 154.04,147.13 152.45,145.55 ZM 164.23 80.23 C167.04,77.42 167.50,76.27 167.50,72.00 C167.50,67.73 167.04,66.58 164.23,63.77 C161.13,60.67 160.52,60.48 152.48,60.15 L 144.00 59.79 L 144.00 72.00 L 144.00 84.21 L 152.48 83.85 C160.52,83.52 161.13,83.33 164.23,80.23 Z" fill="rgba(0,0,0,1)"/>
</g>
</svg>