<svg xmlns="http://www.w3.org/2000/svg" width="512" height="512" viewBox="0 0 512 512">
<g>
<path d="M 332.06 512.00 L 73.62 512.00 C138.95,512.00 147.10,511.83 146.00,510.50 C145.32,509.67 143.52,509.00 142.02,509.00 C136.35,509.00 129.84,507.72 131.18,506.87 C132.02,506.33 131.11,506.03 128.64,506.02 C125.62,506.00 124.91,506.33 125.36,507.50 C126.01,509.19 123.50,509.61 122.49,507.98 C122.14,507.42 121.44,507.23 120.93,507.54 C120.42,507.86 120.00,507.64 120.00,507.06 C120.00,505.13 116.14,505.96 114.56,508.22 C113.39,509.89 113.00,510.05 113.00,508.84 C113.00,507.96 112.37,506.72 111.59,506.08 C109.85,504.63 99.26,503.77 98.50,505.01 C97.25,507.03 94.92,504.73 95.37,501.92 C95.89,498.62 94.66,497.99 86.84,497.50 C81.78,497.18 78.56,494.90 79.48,492.28 C80.20,490.26 77.56,489.22 70.40,488.72 C67.12,488.49 64.01,486.50 63.98,484.63 C63.95,482.00 62.30,480.77 60.27,481.86 C58.66,482.72 57.89,482.50 56.25,480.71 C55.14,479.50 53.91,477.46 53.53,476.19 C53.15,474.93 52.33,474.06 51.71,474.26 C50.12,474.79 45.92,470.89 46.09,469.05 C46.40,465.63 45.96,464.78 44.13,465.26 C42.39,465.71 39.78,463.43 39.66,461.35 C39.56,459.56 37.46,458.23 35.97,459.02 C33.82,460.16 30.11,456.05 29.82,452.21 C29.69,450.52 29.31,449.31 28.98,449.51 C28.01,450.11 23.53,446.64 23.16,445.00 C22.22,440.94 22.18,440.00 22.92,440.00 C24.10,440.00 23.37,435.15 21.92,433.40 C20.92,432.20 20.52,432.16 19.87,433.20 C18.64,435.19 15.84,431.89 15.38,427.89 C15.16,426.08 14.54,424.14 14.00,423.60 C13.45,423.05 13.00,421.58 13.00,420.33 C13.00,418.95 12.51,418.23 11.75,418.50 C9.00,419.47 4.56,413.01 6.96,411.53 C8.31,410.69 8.31,406.31 6.95,405.47 C6.37,405.11 6.08,404.30 6.31,403.66 C6.54,403.02 6.32,401.71 5.83,400.75 C5.28,399.68 5.30,399.00 5.88,399.00 C6.40,399.00 6.71,398.44 6.57,397.75 C6.43,397.06 5.97,394.80 5.54,392.72 C5.12,390.65 3.92,388.49 2.88,387.94 C0.18,386.49 0.27,380.37 3.00,379.50 C5.58,378.68 5.53,377.20 2.85,374.87 C1.66,373.84 1.16,373.00 1.74,373.00 C3.63,373.00 4.22,367.90 2.55,366.05 C0.55,363.84 0.56,360.11 2.57,359.34 C3.78,358.87 3.99,357.87 3.47,354.84 C2.98,351.93 3.14,351.01 4.09,351.22 C5.43,351.51 5.49,351.24 6.38,339.00 C7.08,329.38 7.80,327.00 10.03,327.00 C12.76,327.00 15.06,325.90 14.44,324.90 C14.13,324.40 14.45,324.00 15.14,324.00 C16.12,324.00 16.13,323.73 15.20,322.80 C13.83,321.43 13.57,319.61 14.86,320.41 C15.33,320.70 15.54,319.33 15.32,317.36 C14.86,313.19 16.74,311.25 20.97,311.50 C23.24,311.63 23.65,311.29 23.44,309.39 C23.30,308.14 22.88,306.62 22.51,306.01 C22.13,305.41 22.43,304.17 23.16,303.26 C24.26,301.92 24.26,301.76 23.18,302.41 C22.15,303.03 22.07,302.79 22.81,301.35 C23.34,300.33 24.29,298.36 24.94,296.96 C25.77,295.16 26.88,294.44 28.78,294.46 C30.91,294.49 31.56,293.95 31.98,291.75 C32.33,289.92 33.67,288.38 36.00,287.13 C38.30,285.90 39.54,284.50 39.62,283.02 C39.75,280.56 41.81,278.77 43.72,279.47 C45.56,280.14 47.89,277.30 47.32,275.10 C46.79,273.08 50.20,270.39 51.94,271.46 C53.41,272.37 55.86,269.19 55.32,267.10 C54.79,265.08 58.20,262.39 59.94,263.46 C61.41,264.37 63.86,261.19 63.32,259.10 C62.79,257.08 66.20,254.39 67.94,255.46 C69.41,256.37 71.86,253.19 71.32,251.10 C70.79,249.08 74.20,246.39 75.94,247.46 C77.41,248.37 79.86,245.19 79.32,243.10 C78.79,241.08 82.20,238.39 83.94,239.46 C85.41,240.37 87.86,237.19 87.32,235.10 C86.84,233.29 89.62,230.76 91.71,231.10 C94.13,231.51 95.00,230.70 95.00,228.04 C95.00,225.29 97.45,222.73 99.71,223.10 C102.13,223.51 103.00,222.70 103.00,220.04 C103.00,217.29 105.45,214.73 107.71,215.10 C110.13,215.51 111.00,214.70 111.00,212.04 C111.00,209.29 113.45,206.73 115.71,207.10 C118.13,207.51 119.00,206.70 119.00,204.04 C119.00,201.29 121.45,198.73 123.71,199.10 C126.13,199.51 127.00,198.70 127.00,196.04 C127.00,193.06 130.02,190.27 131.94,191.46 C133.40,192.36 135.87,189.20 135.32,187.13 C134.71,184.77 135.66,184.15 140.39,183.83 C142.43,183.70 144.55,183.04 145.10,182.39 C145.64,181.73 147.31,181.37 148.80,181.58 C156.65,182.74 159.81,183.06 162.88,182.99 C166.65,182.91 170.00,185.34 170.00,188.15 C170.00,189.59 170.76,190.00 173.39,190.00 C175.49,190.00 177.01,189.43 177.36,188.50 C177.68,187.68 178.51,187.01 179.22,187.02 C180.22,187.03 180.23,187.20 179.27,187.81 C178.35,188.40 178.47,188.95 179.77,190.05 C180.72,190.85 182.06,191.54 182.75,191.60 C183.44,191.65 184.82,191.77 185.81,191.85 C186.81,191.93 188.56,192.87 189.70,193.94 C190.85,195.01 192.06,195.61 192.39,195.27 C192.73,194.94 193.00,195.22 193.00,195.89 C193.00,196.57 193.49,196.81 194.10,196.44 C194.88,195.96 194.91,196.30 194.20,197.63 C193.32,199.27 193.62,199.53 196.66,199.75 C198.56,199.89 200.99,199.54 202.06,198.97 C204.21,197.82 208.49,199.40 207.51,200.99 C206.82,202.10 212.06,207.08 213.18,206.39 C213.63,206.11 214.00,206.34 214.00,206.91 C214.00,207.47 214.63,207.70 215.39,207.40 C216.18,207.10 218.62,208.67 221.03,211.03 C224.25,214.19 225.85,215.07 227.69,214.72 C230.42,214.20 233.64,217.89 232.67,220.42 C231.88,222.47 233.93,223.80 238.47,224.18 C242.23,224.49 242.41,224.66 242.45,228.00 L 242.50 231.50 L 248.17 231.80 C253.65,232.09 255.92,233.31 256.36,236.20 C256.66,238.20 258.06,240.08 258.87,239.58 C260.23,238.74 262.45,240.89 263.54,244.13 C264.44,246.80 265.17,247.38 267.80,247.50 C271.62,247.68 271.74,247.77 272.40,251.44 C273.11,255.33 274.15,256.17 278.38,256.29 C280.36,256.35 281.49,256.70 280.90,257.06 C280.31,257.43 279.98,258.80 280.16,260.11 C280.41,261.83 281.48,262.82 284.00,263.62 C286.80,264.52 287.56,265.33 287.79,267.62 C287.95,269.21 288.36,271.17 288.69,272.00 C289.03,272.83 289.44,274.17 289.60,275.00 C289.99,276.95 293.95,280.15 295.10,279.44 C295.98,278.89 296.39,280.87 296.07,284.12 C295.98,285.14 297.63,286.55 300.56,287.92 C304.20,289.63 305.10,290.52 304.71,292.02 C304.20,293.95 307.21,298.46 308.28,297.38 C308.60,297.06 308.62,297.75 308.32,298.90 C308.01,300.06 307.26,301.01 306.63,301.03 C304.27,301.09 309.20,303.14 311.90,303.22 C314.15,303.28 314.64,303.68 314.25,305.15 C313.98,306.17 313.45,307.00 313.07,307.00 C312.68,307.00 312.36,308.35 312.36,310.00 C312.36,311.65 312.81,313.00 313.35,313.00 C313.89,313.00 314.05,313.28 313.71,313.62 C313.37,313.96 313.64,314.80 314.30,315.50 C314.96,316.19 316.14,317.69 316.93,318.82 C317.72,319.96 318.70,320.68 319.11,320.43 C320.55,319.54 321.32,322.37 321.23,328.18 C321.17,331.57 321.53,333.79 322.07,333.46 C322.58,333.14 323.00,333.57 323.00,334.41 C323.00,335.25 323.58,335.72 324.28,335.45 C327.18,334.33 328.93,337.39 329.38,344.33 C329.87,351.94 330.00,352.22 333.22,352.39 C334.98,352.47 335.58,353.19 335.84,355.50 C336.02,357.15 336.53,358.95 336.97,359.50 C339.28,362.42 335.49,369.79 332.31,368.56 C330.46,367.86 328.10,370.67 328.68,372.90 C329.21,374.92 325.80,377.61 324.06,376.54 C322.59,375.63 320.14,378.81 320.68,380.90 C321.21,382.92 317.80,385.61 316.06,384.54 C314.59,383.63 312.14,386.81 312.68,388.90 C313.21,390.92 309.80,393.61 308.06,392.54 C306.59,391.63 304.14,394.81 304.68,396.90 C305.21,398.92 301.80,401.61 300.06,400.54 C298.59,399.63 296.14,402.81 296.68,404.90 C297.21,406.92 293.80,409.61 292.06,408.54 C290.59,407.63 288.14,410.81 288.68,412.90 C289.21,414.92 285.80,417.61 284.06,416.54 C282.59,415.63 280.14,418.81 280.68,420.90 C281.21,422.92 277.80,425.61 276.06,424.54 C274.59,423.63 272.14,426.81 272.68,428.90 C273.21,430.92 269.80,433.61 268.06,432.54 C266.59,431.63 264.14,434.81 264.68,436.90 C265.21,438.92 261.80,441.61 260.06,440.54 C258.59,439.63 256.14,442.81 256.68,444.90 C257.21,446.92 253.80,449.61 252.06,448.54 C250.59,447.63 248.14,450.81 248.68,452.90 C249.21,454.92 245.80,457.61 244.06,456.54 C242.59,455.63 240.14,458.81 240.68,460.90 C241.21,462.92 237.80,465.61 236.06,464.54 C234.60,463.64 232.13,466.80 232.68,468.87 C233.29,471.20 231.45,472.46 227.84,472.18 C224.80,471.95 223.21,473.61 224.87,475.27 C226.40,476.80 223.38,480.00 220.40,480.00 C217.67,480.00 217.13,480.73 216.81,484.86 C216.60,487.61 216.20,488.01 213.54,488.12 C211.87,488.18 210.16,488.18 209.75,488.12 C209.34,488.05 209.00,488.36 209.00,488.79 C209.00,489.22 207.39,489.62 205.42,489.67 C200.80,489.80 199.43,491.12 201.13,493.84 C201.84,494.98 202.11,496.23 201.72,496.62 C201.33,497.01 197.66,497.37 193.57,497.43 C189.49,497.48 185.85,497.81 185.50,498.17 C184.39,499.28 184.24,502.47 185.26,503.13 C185.80,503.48 184.57,504.32 182.53,504.99 C179.98,505.83 178.49,505.89 177.79,505.19 C176.79,504.19 175.95,504.26 172.25,505.66 C171.29,506.03 170.27,506.39 170.00,506.46 C169.73,506.54 168.45,506.95 167.18,507.39 C165.49,507.96 164.52,507.72 163.64,506.52 C162.76,505.32 161.66,505.05 159.72,505.53 C158.23,505.91 157.26,506.62 157.57,507.11 C157.87,507.60 156.84,508.00 155.27,508.00 C153.14,508.00 152.39,508.50 152.27,510.00 C152.12,511.99 152.74,512.00 332.06,512.00 ZM 512.00 62.50 L 512.00 332.00 C512.00,233.00 511.64,152.00 511.19,152.00 C510.75,152.00 509.55,152.61 508.54,153.35 C506.76,154.65 506.77,154.77 508.85,156.85 C511.35,159.35 511.62,160.45 509.53,159.65 C507.72,158.96 506.71,160.49 506.33,164.46 C505.86,169.58 505.15,175.47 504.96,176.00 C504.47,177.30 504.56,179.55 505.12,180.00 C506.27,180.91 504.09,185.00 502.46,185.00 C500.86,185.00 497.12,187.99 498.68,188.02 C499.13,188.02 498.88,188.43 498.11,188.91 C496.50,189.93 495.94,195.69 497.21,198.25 C497.87,199.58 497.65,200.00 496.29,200.02 C494.75,200.03 494.71,200.18 496.00,201.11 C497.26,202.02 497.22,202.09 495.75,201.59 C494.79,201.27 493.25,200.70 492.34,200.33 C491.29,199.91 490.91,200.05 491.33,200.72 C491.69,201.31 491.25,201.71 490.33,201.64 C489.00,201.53 488.61,202.63 488.36,207.25 C488.18,210.45 488.46,213.00 488.99,213.00 C489.51,213.00 489.69,213.66 489.38,214.46 C489.07,215.26 486.95,216.29 484.66,216.74 C481.12,217.43 480.45,217.96 480.18,220.28 C480.01,221.77 479.00,223.47 477.93,224.04 C476.87,224.60 476.00,224.80 476.00,224.46 C476.00,224.13 475.33,224.53 474.50,225.36 C473.67,226.18 473.00,227.77 473.00,228.89 C473.00,231.01 469.62,233.50 468.06,232.54 C466.59,231.63 464.14,234.81 464.68,236.90 C465.21,238.92 461.80,241.61 460.06,240.54 C458.59,239.63 456.14,242.81 456.68,244.90 C457.26,247.09 454.06,249.35 451.67,248.43 C449.94,247.76 448.92,249.14 448.53,252.67 C448.23,255.44 446.23,257.25 444.28,256.53 C442.69,255.95 439.75,258.90 440.35,260.47 C441.11,262.46 439.51,264.07 436.41,264.43 C434.81,264.62 433.13,264.82 432.68,264.89 C432.23,264.95 431.94,266.01 432.04,267.25 C432.34,270.92 432.06,272.15 431.07,271.54 C430.56,271.23 429.85,271.43 429.50,272.00 C429.15,272.57 428.48,272.80 428.02,272.51 C426.12,271.34 423.82,273.30 424.28,275.70 C424.80,278.43 422.46,281.39 420.40,280.60 C418.47,279.86 415.83,282.88 416.51,285.04 C417.13,286.98 413.78,289.60 412.06,288.54 C410.81,287.77 407.78,290.98 408.35,292.47 C409.11,294.46 407.51,296.07 404.41,296.43 C402.81,296.62 401.13,296.82 400.68,296.89 C400.23,296.95 399.94,298.01 400.04,299.25 C400.34,302.92 400.06,304.15 399.07,303.54 C398.56,303.23 397.85,303.43 397.50,304.00 C397.15,304.57 396.48,304.80 396.02,304.51 C394.38,303.50 391.89,305.29 392.06,307.38 C392.33,310.93 392.04,312.15 391.07,311.54 C390.56,311.23 389.85,311.43 389.50,312.00 C389.15,312.57 388.48,312.80 388.02,312.51 C386.38,311.50 383.89,313.29 384.06,315.38 C384.33,318.93 384.04,320.15 383.07,319.54 C382.56,319.23 381.85,319.43 381.50,320.00 C381.15,320.57 380.48,320.80 380.02,320.51 C378.12,319.34 375.82,321.30 376.28,323.70 C376.54,325.04 376.10,326.75 375.30,327.56 C373.81,329.05 368.10,329.58 367.87,328.25 C367.19,324.26 366.97,321.98 366.96,319.00 C366.95,317.08 366.57,314.89 366.10,314.15 C365.64,313.41 365.59,311.31 366.00,309.50 C366.88,305.58 365.80,303.14 363.83,304.63 C363.10,305.18 361.60,305.60 360.50,305.56 C358.50,305.50 358.34,304.74 359.37,300.25 C359.65,299.01 359.49,298.00 359.00,298.00 C358.51,298.00 357.97,295.86 357.80,293.25 C357.62,290.37 357.01,288.45 356.25,288.38 C355.56,288.31 354.63,288.19 354.19,288.12 C353.74,288.06 352.61,286.40 351.68,284.45 C350.74,282.49 349.60,281.13 349.13,281.42 C347.75,282.27 348.66,277.44 350.38,274.83 C351.86,272.57 351.83,272.41 349.98,272.27 C348.89,272.19 348.00,272.51 348.00,272.97 C348.00,273.44 347.21,273.71 346.26,273.57 C345.20,273.41 344.11,271.87 343.50,269.70 C342.28,265.36 341.01,263.95 338.15,263.74 C336.44,263.61 336.00,262.93 336.00,260.45 C336.00,258.74 335.69,257.03 335.32,256.65 C334.94,256.27 334.56,254.53 334.48,252.79 C334.40,251.04 333.92,249.47 333.42,249.29 C329.04,247.76 327.50,246.23 327.54,243.46 C327.58,240.90 327.19,240.47 324.68,240.28 C321.46,240.04 318.73,238.24 319.56,236.91 C319.85,236.43 319.62,235.16 319.05,234.09 C318.29,232.68 317.27,232.26 315.40,232.60 C312.22,233.18 309.84,231.39 310.06,228.59 C310.36,224.76 310.02,224.32 305.84,223.07 C303.12,222.26 302.11,221.55 302.93,221.04 C305.01,219.76 303.72,216.53 300.99,216.15 C298.46,215.80 296.93,214.09 295.96,210.50 C295.58,209.12 294.49,208.46 292.46,208.36 C290.83,208.28 288.94,208.17 288.25,208.11 C287.52,208.04 287.00,206.60 287.00,204.61 C287.00,201.14 285.74,200.00 281.92,200.00 C280.56,200.00 280.00,199.30 280.00,197.58 C280.00,193.24 278.98,192.00 275.39,192.00 C271.99,192.00 271.77,191.71 271.74,187.19 C271.74,185.69 271.27,185.07 270.40,185.40 C269.66,185.68 268.83,185.54 268.55,185.08 C267.88,184.00 262.95,183.99 260.89,185.07 C258.78,186.19 256.24,184.20 255.82,181.11 C255.64,179.80 254.39,178.00 253.04,177.11 C251.40,176.03 250.85,175.94 251.40,176.82 C252.07,177.92 251.85,177.92 250.10,176.83 C248.95,176.11 247.95,175.06 247.88,174.51 C247.82,173.95 247.66,173.05 247.54,172.50 C247.41,171.95 247.24,170.99 247.15,170.37 C246.98,169.09 243.00,167.75 243.00,168.97 C243.00,169.40 241.18,169.64 238.96,169.51 C234.63,169.26 229.77,165.76 230.63,163.52 C231.37,161.59 228.07,158.70 226.55,159.96 C225.87,160.52 224.95,160.65 224.50,160.24 C224.05,159.83 224.05,160.14 224.50,160.92 C225.11,161.97 224.91,162.18 223.71,161.72 C222.58,161.29 222.27,161.53 222.66,162.55 C223.44,164.60 221.75,164.35 219.30,162.06 C218.15,160.99 216.90,160.43 216.52,160.81 C216.14,161.19 215.92,161.05 216.04,160.50 C216.48,158.31 215.91,157.42 213.96,157.27 C212.83,157.19 211.11,156.12 210.12,154.90 C208.75,153.21 207.05,152.61 202.98,152.36 C198.55,152.10 197.17,151.54 194.93,149.08 C193.44,147.45 192.01,146.33 191.75,146.58 C191.49,146.84 190.72,146.36 190.02,145.52 C189.32,144.69 188.10,144.00 187.31,144.00 C183.50,144.00 181.68,137.78 184.97,136.02 C186.11,135.41 187.45,135.16 187.94,135.46 C189.41,136.37 191.86,133.19 191.32,131.10 C190.79,129.08 194.20,126.39 195.94,127.46 C197.41,128.37 199.86,125.19 199.32,123.10 C198.79,121.08 202.20,118.39 203.94,119.46 C205.41,120.37 207.86,117.19 207.32,115.10 C206.79,113.08 210.20,110.39 211.94,111.46 C213.41,112.37 215.86,109.19 215.32,107.10 C214.79,105.08 218.20,102.39 219.94,103.46 C221.41,104.37 223.86,101.19 223.32,99.10 C222.79,97.08 226.20,94.39 227.94,95.46 C229.41,96.37 231.86,93.19 231.32,91.10 C230.79,89.08 234.20,86.39 235.94,87.46 C237.41,88.37 239.86,85.19 239.32,83.10 C238.79,81.08 242.20,78.39 243.94,79.46 C245.41,80.37 247.86,77.19 247.32,75.10 C246.79,73.08 250.20,70.39 251.94,71.46 C253.41,72.37 255.86,69.19 255.32,67.10 C254.79,65.08 258.20,62.39 259.94,63.46 C261.41,64.37 263.86,61.19 263.32,59.10 C262.79,57.08 266.20,54.39 267.94,55.46 C269.41,56.37 271.86,53.19 271.32,51.10 C270.79,49.08 274.20,46.39 275.94,47.46 C277.40,48.36 279.87,45.20 279.32,43.13 C278.71,40.79 280.54,39.51 284.50,39.48 C287.09,39.47 287.55,39.06 287.83,36.48 C288.24,32.69 288.83,32.12 292.64,31.83 C295.46,31.62 295.68,31.36 295.01,29.03 C293.77,24.71 296.88,23.20 307.75,22.84 C309.54,22.79 311.07,22.23 311.15,21.62 C311.24,21.00 311.41,20.05 311.54,19.50 C311.66,18.95 311.82,17.73 311.88,16.79 C311.98,15.41 313.01,15.09 317.25,15.10 C326.83,15.14 327.51,14.88 327.45,11.29 C327.40,8.62 327.83,7.98 329.95,7.56 C331.35,7.28 333.17,7.13 334.00,7.23 C336.43,7.53 345.40,5.83 346.66,4.83 C347.38,4.25 348.07,4.30 348.47,4.95 C349.48,6.59 353.72,6.18 354.41,4.39 C354.80,3.36 355.75,2.96 357.01,3.29 C358.11,3.58 358.78,3.45 358.51,3.01 C358.23,2.57 358.72,1.94 359.59,1.60 C362.17,0.61 365.81,0.92 366.22,2.16 C366.60,3.29 378.35,3.52 380.12,2.43 C380.56,2.15 381.96,2.96 383.21,4.21 L 385.50 6.50 L 385.82 4.25 C386.21,1.48 387.05,1.41 389.27,4.00 C391.58,6.70 396.00,6.70 396.00,4.00 C396.00,1.24 396.86,1.48 400.16,5.18 C401.72,6.93 403.00,7.84 403.00,7.20 C403.00,6.33 403.62,6.32 405.45,7.16 C407.30,8.00 408.65,7.97 410.89,7.04 C414.30,5.63 416.00,6.28 416.00,8.99 C416.00,11.58 418.85,14.18 420.96,13.51 C421.93,13.21 423.28,13.64 423.98,14.47 C424.77,15.43 426.25,15.81 428.01,15.50 C429.93,15.16 430.97,15.49 431.39,16.57 C431.72,17.43 432.40,17.87 432.90,17.56 C433.40,17.25 433.58,17.89 433.29,18.99 C432.75,21.05 433.60,21.65 438.00,22.32 C439.38,22.52 441.29,22.99 442.25,23.35 C443.21,23.71 444.70,24.22 445.55,24.49 C446.40,24.75 447.55,26.28 448.11,27.88 C448.98,30.39 449.57,30.75 452.35,30.49 C454.71,30.27 456.20,30.84 457.91,32.61 C459.84,34.62 459.92,34.91 458.37,34.33 C456.79,33.73 456.69,33.86 457.74,35.15 C458.42,36.00 458.69,36.98 458.32,37.34 C457.96,37.70 458.84,38.00 460.27,38.00 C461.71,38.00 463.16,38.46 463.51,39.02 C463.86,39.58 464.60,39.75 465.16,39.40 C465.77,39.02 466.10,39.91 465.98,41.64 C465.67,46.21 465.90,47.00 467.56,47.00 C468.52,47.00 468.85,46.52 468.41,45.75 C468.02,45.06 468.66,45.48 469.83,46.68 C471.00,47.89 472.08,49.45 472.23,50.16 C472.38,50.87 473.08,52.07 473.78,52.83 C474.79,53.91 475.36,53.94 476.52,52.99 C477.71,52.00 478.13,52.17 478.79,53.96 C479.23,55.16 480.03,56.12 480.55,56.09 C481.07,56.05 481.56,56.58 481.63,57.26 C481.71,57.94 481.89,58.95 482.04,59.50 C482.18,60.05 482.37,61.17 482.45,62.00 C482.53,62.83 483.13,63.39 483.80,63.25 C486.21,62.75 490.94,69.30 489.02,70.49 C488.53,70.79 488.17,72.38 488.22,74.02 C488.30,76.92 490.12,79.35 492.39,79.58 C493.00,79.64 494.03,79.76 494.68,79.85 C495.98,80.02 499.38,90.57 498.56,91.90 C498.28,92.36 498.89,93.50 499.92,94.43 C500.95,95.36 501.95,95.68 502.15,95.13 C502.35,94.55 503.28,94.71 504.39,95.53 C506.05,96.76 506.13,97.28 505.02,99.94 C504.26,101.79 504.07,104.04 504.54,105.73 C504.97,107.25 505.43,109.05 505.56,109.73 C505.70,110.41 506.53,111.68 507.41,112.55 C509.29,114.43 509.52,117.11 507.77,116.75 C505.65,116.32 505.77,120.77 507.94,122.94 C509.07,124.07 510.45,125.00 511.00,125.00 C511.66,125.00 512.00,103.50 512.00,62.50 ZM 298.12 102.64 C299.85,103.41 322.04,103.58 326.75,102.86 C327.44,102.75 328.00,101.91 328.00,100.99 C328.00,98.52 331.60,95.66 333.93,96.27 C335.03,96.56 336.41,96.21 337.00,95.49 C337.60,94.78 339.19,93.92 340.54,93.58 C341.89,93.24 343.00,92.26 343.00,91.41 C343.00,87.81 346.17,86.54 356.37,86.08 C357.73,86.02 358.09,85.46 357.71,83.98 C357.10,81.66 360.88,79.21 365.96,78.66 C367.64,78.48 369.31,78.03 369.67,77.66 C371.03,76.30 378.86,77.01 380.49,78.63 C381.86,80.01 382.50,80.07 384.47,79.01 C386.69,77.83 387.98,77.88 397.29,79.51 C399.71,79.93 401.61,79.74 402.54,78.96 C403.70,78.01 404.01,78.04 404.03,79.13 C404.05,80.00 404.76,79.67 405.94,78.25 C407.61,76.25 407.76,74.72 407.32,64.25 C407.05,57.79 406.86,52.05 406.90,51.50 C406.94,50.95 407.25,48.16 407.59,45.31 L 408.20 40.11 L 401.19 40.57 C395.65,40.94 393.84,40.70 392.58,39.44 C391.70,38.56 391.24,37.43 391.55,36.92 C391.86,36.41 391.53,35.99 390.81,35.98 C389.86,35.97 389.91,35.70 391.00,35.00 C392.23,34.21 392.11,34.03 390.36,34.02 C389.18,34.01 387.95,34.67 387.64,35.50 C387.32,36.33 387.48,37.00 388.00,37.00 C388.52,37.00 388.68,37.66 388.37,38.47 C387.88,39.76 387.62,39.77 386.35,38.50 C385.56,37.70 385.04,36.29 385.20,35.38 C385.37,34.46 384.87,33.49 384.11,33.22 C383.26,32.93 382.99,33.18 383.42,33.87 C383.82,34.52 383.48,35.00 382.63,35.00 C381.81,35.00 380.85,35.90 380.50,37.00 C380.09,38.28 378.99,39.00 377.43,39.00 C374.88,39.00 374.34,38.06 375.96,36.44 C377.21,35.19 375.57,32.53 374.11,33.43 C373.50,33.81 373.00,34.77 373.00,35.56 C373.00,37.18 371.21,37.42 369.09,36.08 C367.51,35.08 364.75,35.78 365.49,36.99 C365.76,37.42 365.36,38.29 364.60,38.91 C363.51,39.82 363.10,39.53 362.60,37.53 C362.18,35.89 361.27,35.00 359.98,35.00 C358.89,35.00 357.99,35.34 357.97,35.75 C357.95,36.16 357.04,37.57 355.95,38.88 C354.20,40.99 352.93,41.32 345.23,41.70 C335.85,42.16 335.76,42.16 332.00,41.76 L 331.88 41.75 C331.05,41.66 330.51,41.60 330.13,41.83 C329.41,42.27 329.34,43.81 329.10,48.33 C329.02,49.88 328.50,50.04 325.75,49.39 C321.88,48.47 316.93,48.43 314.68,49.29 C313.79,49.63 312.39,51.52 311.57,53.48 C310.33,56.46 309.67,56.98 307.62,56.61 C304.87,56.11 304.00,57.40 304.43,61.36 C304.59,62.78 304.31,63.69 303.82,63.39 C303.32,63.08 301.81,63.55 300.46,64.44 C298.64,65.63 298.00,65.71 297.98,64.77 C297.97,63.84 297.73,63.88 297.08,64.91 C296.59,65.68 296.35,67.61 296.55,69.19 C296.75,70.77 296.60,71.90 296.21,71.69 C294.95,71.03 292.20,74.71 293.00,75.99 C293.83,77.35 293.21,80.86 291.82,82.65 C289.38,85.78 288.77,95.45 291.00,95.60 C294.07,95.79 296.00,97.28 296.00,99.45 C296.00,100.77 296.87,102.08 298.12,102.64 ZM 509.21 145.15 C511.68,146.72 512.00,145.95 512.00,138.53 C512.00,132.30 511.75,131.16 510.50,131.64 C509.67,131.95 508.99,132.95 508.98,133.86 C508.97,135.28 508.84,135.30 508.00,134.00 C507.42,133.10 507.02,132.98 507.02,133.69 C507.01,134.35 507.50,135.19 508.11,135.57 C508.81,136.00 508.98,137.75 508.57,140.29 C508.12,143.10 508.32,144.58 509.21,145.15 Z" fill="rgb(0,0,0)"/>
<path d="M 488.87 215.06 C487.98,216.41 487.08,217.73 486.16,219.00 C481.87,224.96 463.66,243.88 425.11,282.41 L 370.17 337.33 L 369.04 332.91 C368.42,330.49 367.51,327.60 367.01,326.50 C366.51,325.40 364.02,319.33 361.48,313.00 C352.69,291.15 340.40,269.64 324.61,248.50 C314.30,234.69 286.15,205.97 273.00,195.84 C245.93,174.97 216.54,159.37 184.63,148.95 L 171.76 144.74 L 224.63 91.79 C276.53,39.82 285.31,31.58 297.65,23.26 C306.36,17.40 317.03,12.23 328.12,8.30 C327.56,8.84 327.42,9.70 327.45,11.29 C327.51,14.88 326.83,15.14 317.25,15.10 C313.01,15.09 311.98,15.41 311.88,16.79 C311.82,17.73 311.66,18.95 311.54,19.50 C311.41,20.05 311.24,21.00 311.15,21.62 C311.07,22.23 309.54,22.79 307.75,22.84 C296.88,23.20 293.77,24.71 295.01,29.03 C295.68,31.36 295.46,31.62 292.64,31.83 C288.83,32.12 288.24,32.69 287.83,36.48 C287.55,39.06 287.09,39.47 284.50,39.48 C280.54,39.51 278.71,40.79 279.32,43.13 C279.87,45.20 277.40,48.36 275.94,47.46 C274.20,46.39 270.79,49.08 271.32,51.10 C271.86,53.19 269.41,56.37 267.94,55.46 C266.20,54.39 262.79,57.08 263.32,59.10 C263.86,61.19 261.41,64.37 259.94,63.46 C258.20,62.39 254.79,65.08 255.32,67.10 C255.86,69.19 253.41,72.37 251.94,71.46 C250.20,70.39 246.79,73.08 247.32,75.10 C247.86,77.19 245.41,80.37 243.94,79.46 C242.20,78.39 238.79,81.08 239.32,83.10 C239.86,85.19 237.41,88.37 235.94,87.46 C234.20,86.39 230.79,89.08 231.32,91.10 C231.86,93.19 229.41,96.37 227.94,95.46 C226.20,94.39 222.79,97.08 223.32,99.10 C223.86,101.19 221.41,104.37 219.94,103.46 C218.20,102.39 214.79,105.08 215.32,107.10 C215.86,109.19 213.41,112.37 211.94,111.46 C210.20,110.39 206.79,113.08 207.32,115.10 C207.86,117.19 205.41,120.37 203.94,119.46 C202.20,118.39 198.79,121.08 199.32,123.10 C199.86,125.19 197.41,128.37 195.94,127.46 C194.20,126.39 190.79,129.08 191.32,131.10 C191.86,133.19 189.41,136.37 187.94,135.46 C187.45,135.16 186.11,135.41 184.97,136.02 C181.68,137.78 183.50,144.00 187.31,144.00 C188.10,144.00 189.32,144.69 190.02,145.52 C190.72,146.36 191.49,146.84 191.75,146.58 C192.01,146.33 193.44,147.45 194.93,149.08 C197.17,151.54 198.55,152.10 202.98,152.36 C207.05,152.61 208.75,153.21 210.12,154.90 C211.11,156.12 212.83,157.19 213.96,157.27 C215.91,157.42 216.48,158.31 216.04,160.50 C215.92,161.05 216.14,161.19 216.52,160.81 C216.90,160.43 218.15,160.99 219.30,162.06 C221.75,164.35 223.44,164.60 222.66,162.55 C222.27,161.53 222.58,161.29 223.71,161.72 C224.91,162.18 225.11,161.97 224.50,160.92 C224.05,160.14 224.05,159.83 224.50,160.24 C224.95,160.65 225.87,160.52 226.55,159.96 C228.07,158.70 231.37,161.59 230.63,163.52 C229.77,165.76 234.63,169.26 238.96,169.51 C241.18,169.64 243.00,169.40 243.00,168.97 C243.00,167.75 246.98,169.09 247.15,170.37 C247.24,170.99 247.41,171.95 247.54,172.50 C247.66,173.05 247.82,173.95 247.88,174.51 C247.95,175.06 248.95,176.11 250.10,176.83 C251.85,177.92 252.07,177.92 251.40,176.82 C250.85,175.94 251.40,176.03 253.04,177.11 C254.39,178.00 255.64,179.80 255.82,181.11 C256.24,184.20 258.78,186.19 260.89,185.07 C262.95,183.99 267.88,184.00 268.55,185.08 C268.83,185.54 269.66,185.68 270.40,185.40 C271.27,185.07 271.74,185.69 271.74,187.19 C271.77,191.71 271.99,192.00 275.39,192.00 C278.98,192.00 280.00,193.24 280.00,197.58 C280.00,199.30 280.56,200.00 281.92,200.00 C285.74,200.00 287.00,201.14 287.00,204.61 C287.00,206.60 287.52,208.04 288.25,208.11 C288.94,208.17 290.83,208.28 292.46,208.36 C294.49,208.46 295.58,209.12 295.96,210.50 C296.93,214.09 298.46,215.80 300.99,216.15 C303.72,216.53 305.01,219.76 302.93,221.04 C302.11,221.55 303.12,222.26 305.84,223.07 C310.02,224.32 310.36,224.76 310.06,228.59 C309.84,231.39 312.22,233.18 315.40,232.60 C317.27,232.26 318.29,232.68 319.05,234.09 C319.62,235.16 319.85,236.43 319.56,236.91 C318.73,238.24 321.46,240.04 324.68,240.28 C327.19,240.47 327.58,240.90 327.54,243.46 C327.50,246.23 329.04,247.76 333.42,249.29 C333.92,249.47 334.40,251.04 334.48,252.79 C334.56,254.53 334.94,256.27 335.32,256.65 C335.69,257.03 336.00,258.74 336.00,260.45 C336.00,262.93 336.44,263.61 338.15,263.74 C341.01,263.95 342.28,265.36 343.50,269.70 C344.11,271.87 345.20,273.41 346.26,273.57 C347.21,273.71 348.00,273.44 348.00,272.97 C348.00,272.51 348.89,272.19 349.98,272.27 C351.83,272.41 351.86,272.57 350.38,274.83 C348.66,277.44 347.75,282.27 349.13,281.42 C349.60,281.13 350.74,282.49 351.68,284.45 C352.61,286.40 353.74,288.06 354.19,288.12 C354.63,288.19 355.56,288.31 356.25,288.38 C357.01,288.45 357.62,290.37 357.80,293.25 C357.97,295.86 358.51,298.00 359.00,298.00 C359.49,298.00 359.65,299.01 359.37,300.25 C358.34,304.74 358.50,305.50 360.50,305.56 C361.60,305.60 363.10,305.18 363.83,304.63 C365.80,303.14 366.88,305.58 366.00,309.50 C365.59,311.31 365.64,313.41 366.10,314.15 C366.57,314.89 366.95,317.08 366.96,319.00 C366.97,321.98 367.19,324.26 367.87,328.25 C368.10,329.58 373.81,329.05 375.30,327.56 C376.10,326.75 376.54,325.04 376.28,323.70 C375.82,321.30 378.12,319.34 380.02,320.51 C380.48,320.80 381.15,320.57 381.50,320.00 C381.85,319.43 382.56,319.23 383.07,319.54 C384.04,320.15 384.33,318.93 384.06,315.38 C383.89,313.29 386.38,311.50 388.02,312.51 C388.48,312.80 389.15,312.57 389.50,312.00 C389.85,311.43 390.56,311.23 391.07,311.54 C392.04,312.15 392.33,310.93 392.06,307.38 C391.89,305.29 394.38,303.50 396.02,304.51 C396.48,304.80 397.15,304.57 397.50,304.00 C397.85,303.43 398.56,303.23 399.07,303.54 C400.06,304.15 400.34,302.92 400.04,299.25 C399.94,298.01 400.23,296.95 400.68,296.89 C401.13,296.82 402.81,296.62 404.41,296.43 C407.51,296.07 409.11,294.46 408.35,292.47 C407.78,290.98 410.81,287.77 412.06,288.54 C413.78,289.60 417.13,286.98 416.51,285.04 C415.83,282.88 418.47,279.86 420.40,280.60 C422.46,281.39 424.80,278.43 424.28,275.70 C423.82,273.30 426.12,271.34 428.02,272.51 C428.48,272.80 429.15,272.57 429.50,272.00 C429.85,271.43 430.56,271.23 431.07,271.54 C432.06,272.15 432.34,270.92 432.04,267.25 C431.94,266.01 432.23,264.95 432.68,264.89 C433.13,264.82 434.81,264.62 436.41,264.43 C439.51,264.07 441.11,262.46 440.35,260.47 C439.75,258.90 442.69,255.95 444.28,256.53 C446.23,257.25 448.23,255.44 448.53,252.67 C448.92,249.14 449.94,247.76 451.67,248.43 C454.06,249.35 457.26,247.09 456.68,244.90 C456.14,242.81 458.59,239.63 460.06,240.54 C461.80,241.61 465.21,238.92 464.68,236.90 C464.14,234.81 466.59,231.63 468.06,232.54 C469.62,233.50 473.00,231.01 473.00,228.89 C473.00,227.77 473.67,226.18 474.50,225.36 C475.33,224.53 476.00,224.13 476.00,224.46 C476.00,224.80 476.87,224.60 477.93,224.04 C479.00,223.47 480.01,221.77 480.18,220.28 C480.45,217.96 481.12,217.43 484.66,216.74 C486.40,216.39 488.04,215.72 488.87,215.06 ZM 0.00 0.00 L 512.00 0.00 L 446.25 0.17 C410.09,0.27 382.52,0.50 385.00,0.68 C388.67,0.95 392.56,1.45 396.56,2.15 C396.15,2.22 396.00,2.85 396.00,4.00 C396.00,6.70 391.58,6.70 389.27,4.00 C387.05,1.41 386.21,1.48 385.82,4.25 L 385.50 6.50 L 383.21 4.21 C381.96,2.96 380.56,2.15 380.12,2.43 C378.35,3.52 366.60,3.29 366.22,2.16 C365.81,0.92 362.17,0.61 359.59,1.60 C358.72,1.94 358.23,2.57 358.51,3.01 C358.78,3.45 358.11,3.58 357.01,3.29 C355.75,2.96 354.80,3.36 354.41,4.39 C353.72,6.18 349.48,6.59 348.47,4.95 C348.07,4.30 347.38,4.25 346.66,4.83 C345.40,5.83 336.43,7.53 334.00,7.23 C333.31,7.15 331.90,7.24 330.64,7.44 C341.25,3.88 352.15,1.48 362.00,0.70 C362.04,0.70 362.06,0.70 362.06,0.69 C362.06,0.50 282.52,0.27 183.25,0.17 L 0.00 0.00 L 0.17 183.25 C0.27,282.52 0.50,362.06 0.69,362.06 C0.70,362.06 0.70,362.04 0.70,362.00 C1.47,352.27 3.73,341.81 7.16,331.48 C6.86,333.28 6.62,335.72 6.38,339.00 C5.49,351.24 5.43,351.51 4.09,351.22 C3.14,351.01 2.98,351.93 3.47,354.84 C3.99,357.87 3.78,358.87 2.57,359.34 C0.56,360.11 0.55,363.84 2.55,366.05 C4.22,367.90 3.63,373.00 1.74,373.00 C1.16,373.00 1.66,373.84 2.85,374.87 C5.53,377.20 5.58,378.68 3.00,379.50 C0.27,380.37 0.18,386.49 2.88,387.94 C3.92,388.49 5.12,390.65 5.54,392.72 C5.97,394.80 6.43,397.06 6.57,397.75 C6.71,398.44 6.40,399.00 5.88,399.00 C5.30,399.00 5.28,399.68 5.83,400.75 C6.32,401.71 6.54,403.02 6.31,403.66 C6.08,404.30 6.37,405.11 6.95,405.47 C8.31,406.31 8.31,410.69 6.96,411.53 C4.56,413.01 9.00,419.47 11.75,418.50 C12.51,418.23 13.00,418.95 13.00,420.33 C13.00,421.58 13.45,423.05 14.00,423.60 C14.54,424.14 15.16,426.08 15.38,427.89 C15.84,431.89 18.64,435.19 19.87,433.20 C20.52,432.16 20.92,432.20 21.92,433.40 C23.37,435.15 24.10,440.00 22.92,440.00 C22.18,440.00 22.22,440.94 23.16,445.00 C23.53,446.64 28.01,450.11 28.98,449.51 C29.31,449.31 29.69,450.52 29.82,452.21 C30.11,456.05 33.82,460.16 35.97,459.02 C37.46,458.23 39.56,459.56 39.66,461.35 C39.78,463.43 42.39,465.71 44.13,465.26 C45.96,464.78 46.40,465.63 46.09,469.05 C45.92,470.89 50.12,474.79 51.71,474.26 C52.33,474.06 53.15,474.93 53.53,476.19 C53.91,477.46 55.14,479.50 56.25,480.71 C57.89,482.50 58.66,482.72 60.27,481.86 C62.30,480.77 63.95,482.00 63.98,484.63 C64.01,486.50 67.12,488.49 70.40,488.72 C77.56,489.22 80.20,490.26 79.48,492.28 C78.56,494.90 81.78,497.18 86.84,497.50 C94.66,497.99 95.89,498.62 95.37,501.92 C95.15,503.28 95.58,504.51 96.23,505.20 C75.38,498.36 56.74,486.86 40.96,471.06 C17.64,447.70 3.21,416.84 0.70,385.00 C0.51,382.52 0.27,410.09 0.17,446.25 L 0.00 512.00 L 62.75 511.90 C118.96,511.81 124.67,511.66 117.50,510.44 C110.73,509.30 104.14,507.71 97.75,505.70 C98.02,505.59 98.27,505.37 98.50,505.01 C99.26,503.77 109.85,504.63 111.59,506.08 C112.37,506.72 113.00,507.96 113.00,508.84 C113.00,510.05 113.39,509.89 114.56,508.22 C116.14,505.96 120.00,505.13 120.00,507.06 C120.00,507.64 120.42,507.86 120.93,507.54 C121.44,507.23 122.14,507.42 122.49,507.98 C123.50,509.61 126.01,509.19 125.36,507.50 C124.91,506.33 125.62,506.00 128.64,506.02 C131.11,506.03 132.02,506.33 131.18,506.87 C129.84,507.72 136.35,509.00 142.02,509.00 C143.52,509.00 145.32,509.67 146.00,510.50 C147.10,511.83 138.95,512.00 73.62,512.00 L 0.00 512.00 ZM 298.12 102.64 C296.87,102.08 296.00,100.77 296.00,99.45 C296.00,97.28 294.07,95.79 291.00,95.60 C288.77,95.45 289.38,85.78 291.82,82.65 C293.21,80.86 293.83,77.35 293.00,75.99 C292.20,74.71 294.95,71.03 296.21,71.69 C296.60,71.90 296.75,70.77 296.55,69.19 C296.35,67.61 296.59,65.68 297.08,64.91 C297.73,63.88 297.97,63.84 297.98,64.77 C298.00,65.71 298.64,65.63 300.46,64.44 C301.81,63.55 303.32,63.08 303.82,63.39 C304.31,63.69 304.59,62.78 304.43,61.36 C304.00,57.40 304.87,56.11 307.62,56.61 C309.67,56.98 310.33,56.46 311.57,53.48 C312.39,51.52 313.79,49.63 314.68,49.29 C316.93,48.43 321.88,48.47 325.75,49.39 C328.50,50.04 329.02,49.88 329.10,48.33 C329.34,43.81 329.41,42.27 330.13,41.83 C330.51,41.60 331.05,41.66 331.88,41.75 L 332.00 41.76 C335.76,42.16 335.85,42.16 345.23,41.70 C352.93,41.32 354.20,40.99 355.95,38.88 C357.04,37.57 357.95,36.16 357.97,35.75 C357.99,35.34 358.89,35.00 359.98,35.00 C361.27,35.00 362.18,35.89 362.60,37.53 C363.10,39.53 363.51,39.82 364.60,38.91 C365.36,38.29 365.76,37.42 365.49,36.99 C364.75,35.78 367.51,35.08 369.09,36.08 C371.21,37.42 373.00,37.18 373.00,35.56 C373.00,34.77 373.50,33.81 374.11,33.43 C375.57,32.53 377.21,35.19 375.96,36.44 C374.34,38.06 374.88,39.00 377.43,39.00 C378.99,39.00 380.09,38.28 380.50,37.00 C380.85,35.90 381.81,35.00 382.63,35.00 C383.48,35.00 383.82,34.52 383.42,33.87 C382.99,33.18 383.26,32.93 384.11,33.22 C384.87,33.49 385.37,34.46 385.20,35.38 C385.04,36.29 385.56,37.70 386.35,38.50 C387.62,39.77 387.88,39.76 388.37,38.47 C388.68,37.66 388.52,37.00 388.00,37.00 C387.48,37.00 387.32,36.33 387.64,35.50 C387.95,34.67 389.18,34.01 390.36,34.02 C392.11,34.03 392.23,34.21 391.00,35.00 C389.91,35.70 389.86,35.97 390.81,35.98 C391.53,35.99 391.86,36.41 391.55,36.92 C391.24,37.43 391.70,38.56 392.58,39.44 C393.84,40.70 395.65,40.94 401.19,40.57 L 408.20 40.11 L 407.59 45.31 C407.25,48.16 406.94,50.95 406.90,51.50 C406.86,52.05 407.05,57.79 407.32,64.25 C407.76,74.72 407.61,76.25 405.94,78.25 C404.76,79.67 404.05,80.00 404.03,79.13 C404.01,78.04 403.70,78.01 402.54,78.96 C401.61,79.74 399.71,79.93 397.29,79.51 C387.98,77.88 386.69,77.83 384.47,79.01 C382.50,80.07 381.86,80.01 380.49,78.63 C379.84,77.99 378.21,77.49 376.39,77.20 C377.54,77.23 378.74,77.28 380.03,77.34 C393.38,77.97 397.33,76.81 402.71,70.68 C410.53,61.77 407.43,47.01 396.61,41.63 C391.04,38.86 370.62,38.23 358.00,40.43 C338.60,43.80 319.99,52.47 305.34,64.95 C293.91,74.68 291.28,82.55 296.29,92.01 C298.90,96.96 301.92,99.50 307.56,101.51 C309.73,102.28 312.17,102.93 313.00,102.95 C317.17,103.06 322.31,100.42 328.57,94.96 C337.07,87.55 350.80,80.52 361.00,78.37 C364.09,77.72 367.06,77.35 370.56,77.22 C370.16,77.33 369.86,77.48 369.67,77.66 C369.31,78.03 367.64,78.48 365.96,78.66 C360.88,79.21 357.10,81.66 357.71,83.98 C358.09,85.46 357.73,86.02 356.37,86.08 C346.17,86.54 343.00,87.81 343.00,91.41 C343.00,92.26 341.89,93.24 340.54,93.58 C339.19,93.92 337.60,94.78 337.00,95.49 C336.41,96.21 335.03,96.56 333.93,96.27 C331.60,95.66 328.00,98.52 328.00,100.99 C328.00,101.91 327.44,102.75 326.75,102.86 C322.04,103.58 299.85,103.41 298.12,102.64 ZM 179.53 187.64 C188.29,190.78 196.74,194.17 202.72,197.06 C209.75,200.46 215.73,203.53 216.00,203.89 C216.27,204.25 217.85,205.13 219.50,205.85 C224.13,207.86 243.53,221.07 253.00,228.65 C282.94,252.63 310.18,288.85 325.08,324.50 C329.40,334.83 334.04,348.03 335.52,353.90 C335.15,352.83 334.48,352.45 333.22,352.39 C330.00,352.22 329.87,351.94 329.38,344.33 C328.93,337.39 327.18,334.33 324.28,335.45 C323.58,335.72 323.00,335.25 323.00,334.41 C323.00,333.57 322.58,333.14 322.07,333.46 C321.53,333.79 321.17,331.57 321.23,328.18 C321.32,322.37 320.55,319.54 319.11,320.43 C318.70,320.68 317.72,319.96 316.93,318.82 C316.14,317.69 314.96,316.19 314.30,315.50 C313.64,314.80 313.37,313.96 313.71,313.62 C314.05,313.28 313.89,313.00 313.35,313.00 C312.81,313.00 312.36,311.65 312.36,310.00 C312.36,308.35 312.68,307.00 313.07,307.00 C313.45,307.00 313.98,306.17 314.25,305.15 C314.64,303.68 314.15,303.28 311.90,303.22 C309.20,303.14 304.27,301.09 306.63,301.03 C307.26,301.01 308.01,300.06 308.32,298.90 C308.62,297.75 308.60,297.06 308.28,297.38 C307.21,298.46 304.20,293.95 304.71,292.02 C305.10,290.52 304.20,289.63 300.56,287.92 C297.63,286.55 295.98,285.14 296.07,284.12 C296.39,280.87 295.98,278.89 295.10,279.44 C293.95,280.15 289.99,276.95 289.60,275.00 C289.44,274.17 289.03,272.83 288.69,272.00 C288.36,271.17 287.95,269.21 287.79,267.62 C287.56,265.33 286.80,264.52 284.00,263.62 C281.48,262.82 280.41,261.83 280.16,260.11 C279.98,258.80 280.31,257.43 280.90,257.06 C281.49,256.70 280.36,256.35 278.38,256.29 C274.15,256.17 273.11,255.33 272.40,251.44 C271.74,247.77 271.62,247.68 267.80,247.50 C265.17,247.38 264.44,246.80 263.54,244.13 C262.45,240.89 260.23,238.74 258.87,239.58 C258.06,240.08 256.66,238.20 256.36,236.20 C255.92,233.31 253.65,232.09 248.17,231.80 L 242.50 231.50 L 242.45 228.00 C242.41,224.66 242.23,224.49 238.47,224.18 C233.93,223.80 231.88,222.47 232.67,220.42 C233.64,217.89 230.42,214.20 227.69,214.72 C225.85,215.07 224.25,214.19 221.03,211.03 C218.62,208.67 216.18,207.10 215.39,207.40 C214.63,207.70 214.00,207.47 214.00,206.91 C214.00,206.34 213.63,206.11 213.18,206.39 C212.06,207.08 206.82,202.10 207.51,200.99 C208.49,199.40 204.21,197.82 202.06,198.97 C200.99,199.54 198.56,199.89 196.66,199.75 C193.62,199.53 193.32,199.27 194.20,197.63 C194.91,196.30 194.88,195.96 194.10,196.44 C193.49,196.81 193.00,196.57 193.00,195.89 C193.00,195.22 192.73,194.94 192.39,195.27 C192.06,195.61 190.85,195.01 189.70,193.94 C188.56,192.87 186.81,191.93 185.81,191.85 C184.82,191.77 183.44,191.65 182.75,191.60 C182.06,191.54 180.72,190.85 179.77,190.05 C178.47,188.95 178.35,188.40 179.27,187.81 C179.37,187.75 179.45,187.69 179.53,187.64 ZM 8.49 327.66 C13.14,314.81 19.55,302.35 27.10,291.95 C31.23,286.25 50.57,266.11 86.58,230.02 L 139.93 176.54 L 148.38 178.27 C155.84,179.81 167.31,183.30 178.43,187.25 C177.97,187.51 177.56,187.97 177.36,188.50 C177.01,189.43 175.49,190.00 173.39,190.00 C170.76,190.00 170.00,189.59 170.00,188.15 C170.00,185.34 166.65,182.91 162.88,182.99 C159.81,183.06 156.65,182.74 148.80,181.58 C147.31,181.37 145.64,181.73 145.10,182.39 C144.55,183.04 142.43,183.70 140.39,183.83 C135.66,184.15 134.71,184.77 135.32,187.13 C135.87,189.20 133.40,192.36 131.94,191.46 C130.02,190.27 127.00,193.06 127.00,196.04 C127.00,198.70 126.13,199.51 123.71,199.10 C121.45,198.73 119.00,201.29 119.00,204.04 C119.00,206.70 118.13,207.51 115.71,207.10 C113.45,206.73 111.00,209.29 111.00,212.04 C111.00,214.70 110.13,215.51 107.71,215.10 C105.45,214.73 103.00,217.29 103.00,220.04 C103.00,222.70 102.13,223.51 99.71,223.10 C97.45,222.73 95.00,225.29 95.00,228.04 C95.00,230.70 94.13,231.51 91.71,231.10 C89.62,230.76 86.84,233.29 87.32,235.10 C87.86,237.19 85.41,240.37 83.94,239.46 C82.20,238.39 78.79,241.08 79.32,243.10 C79.86,245.19 77.41,248.37 75.94,247.46 C74.20,246.39 70.79,249.08 71.32,251.10 C71.86,253.19 69.41,256.37 67.94,255.46 C66.20,254.39 62.79,257.08 63.32,259.10 C63.86,261.19 61.41,264.37 59.94,263.46 C58.20,262.39 54.79,265.08 55.32,267.10 C55.86,269.19 53.41,272.37 51.94,271.46 C50.20,270.39 46.79,273.08 47.32,275.10 C47.89,277.30 45.56,280.14 43.72,279.47 C41.81,278.77 39.75,280.56 39.62,283.02 C39.54,284.50 38.30,285.90 36.00,287.13 C33.67,288.38 32.33,289.92 31.98,291.75 C31.56,293.95 30.91,294.49 28.78,294.46 C26.88,294.44 25.77,295.16 24.94,296.96 C24.29,298.36 23.34,300.33 22.81,301.35 C22.07,302.79 22.15,303.03 23.18,302.41 C24.26,301.76 24.26,301.92 23.16,303.26 C22.43,304.17 22.13,305.41 22.51,306.01 C22.88,306.62 23.30,308.14 23.44,309.39 C23.65,311.29 23.24,311.63 20.97,311.50 C16.74,311.25 14.86,313.19 15.32,317.36 C15.54,319.33 15.33,320.70 14.86,320.41 C13.57,319.61 13.83,321.43 15.20,322.80 C16.13,323.73 16.12,324.00 15.14,324.00 C14.45,324.00 14.13,324.40 14.44,324.90 C15.06,325.90 12.76,327.00 10.03,327.00 C9.42,327.00 8.91,327.18 8.49,327.66 ZM 337.67 361.56 C337.83,362.39 338.17,364.04 338.47,365.50 C339.07,368.37 336.74,370.85 282.80,424.67 C244.74,462.64 223.91,482.69 218.50,486.55 C213.48,490.14 207.79,493.52 201.76,496.57 C202.08,496.13 201.81,494.93 201.13,493.84 C199.43,491.12 200.80,489.80 205.42,489.67 C207.39,489.62 209.00,489.22 209.00,488.79 C209.00,488.36 209.34,488.05 209.75,488.12 C210.16,488.18 211.87,488.18 213.54,488.12 C216.20,488.01 216.60,487.61 216.81,484.86 C217.13,480.73 217.67,480.00 220.40,480.00 C223.38,480.00 226.40,476.80 224.87,475.27 C223.21,473.61 224.80,471.95 227.84,472.18 C231.45,472.46 233.29,471.20 232.68,468.87 C232.13,466.80 234.60,463.64 236.06,464.54 C237.80,465.61 241.21,462.92 240.68,460.90 C240.14,458.81 242.59,455.63 244.06,456.54 C245.80,457.61 249.21,454.92 248.68,452.90 C248.14,450.81 250.59,447.63 252.06,448.54 C253.80,449.61 257.21,446.92 256.68,444.90 C256.14,442.81 258.59,439.63 260.06,440.54 C261.80,441.61 265.21,438.92 264.68,436.90 C264.14,434.81 266.59,431.63 268.06,432.54 C269.80,433.61 273.21,430.92 272.68,428.90 C272.14,426.81 274.59,423.63 276.06,424.54 C277.80,425.61 281.21,422.92 280.68,420.90 C280.14,418.81 282.59,415.63 284.06,416.54 C285.80,417.61 289.21,414.92 288.68,412.90 C288.14,410.81 290.59,407.63 292.06,408.54 C293.80,409.61 297.21,406.92 296.68,404.90 C296.14,402.81 298.59,399.63 300.06,400.54 C301.80,401.61 305.21,398.92 304.68,396.90 C304.14,394.81 306.59,391.63 308.06,392.54 C309.80,393.61 313.21,390.92 312.68,388.90 C312.14,386.81 314.59,383.63 316.06,384.54 C317.80,385.61 321.21,382.92 320.68,380.90 C320.14,378.81 322.59,375.63 324.06,376.54 C325.80,377.61 329.21,374.92 328.68,372.90 C328.10,370.67 330.46,367.86 332.31,368.56 C334.89,369.55 337.86,364.91 337.67,361.56 ZM 510.15 115.36 C510.59,118.41 511.04,121.10 511.34,122.64 C511.24,124.21 511.13,125.00 511.00,125.00 C510.45,125.00 509.07,124.07 507.94,122.94 C505.77,120.77 505.65,116.32 507.77,116.75 C509.52,117.11 509.29,114.43 507.41,112.55 C506.53,111.68 505.70,110.41 505.56,109.73 C505.43,109.05 504.97,107.25 504.54,105.73 C504.07,104.04 504.26,101.79 505.02,99.94 C506.13,97.28 506.05,96.76 504.39,95.53 C503.28,94.71 502.35,94.55 502.15,95.13 C501.95,95.68 500.95,95.36 499.92,94.43 C498.89,93.50 498.28,92.36 498.56,91.90 C499.38,90.57 495.98,80.02 494.68,79.85 C494.03,79.76 493.00,79.64 492.39,79.58 C490.12,79.35 488.30,76.92 488.22,74.02 C488.17,72.38 488.53,70.79 489.02,70.49 C490.94,69.30 486.21,62.75 483.80,63.25 C483.13,63.39 482.53,62.83 482.45,62.00 C482.37,61.17 482.18,60.05 482.04,59.50 C481.89,58.95 481.71,57.94 481.63,57.26 C481.56,56.58 481.07,56.05 480.55,56.09 C480.03,56.12 479.23,55.16 478.79,53.96 C478.13,52.17 477.71,52.00 476.52,52.99 C475.36,53.94 474.79,53.91 473.78,52.83 C473.08,52.07 472.38,50.87 472.23,50.16 C472.08,49.45 471.00,47.89 469.83,46.68 C468.66,45.48 468.02,45.06 468.41,45.75 C468.85,46.52 468.52,47.00 467.56,47.00 C465.90,47.00 465.67,46.21 465.98,41.64 C466.10,39.91 465.77,39.02 465.16,39.40 C464.60,39.75 463.86,39.58 463.51,39.02 C463.16,38.46 461.71,38.00 460.27,38.00 C458.84,38.00 457.96,37.70 458.32,37.34 C458.69,36.98 458.42,36.00 457.74,35.15 C456.69,33.86 456.79,33.73 458.37,34.33 C459.92,34.91 459.84,34.62 457.91,32.61 C456.20,30.84 454.71,30.27 452.35,30.49 C449.57,30.75 448.98,30.39 448.11,27.88 C447.55,26.28 446.40,24.75 445.55,24.49 C444.70,24.22 443.21,23.71 442.25,23.35 C441.29,22.99 439.38,22.52 438.00,22.32 C433.60,21.65 432.75,21.05 433.29,18.99 C433.58,17.89 433.40,17.25 432.90,17.56 C432.40,17.87 431.72,17.43 431.39,16.57 C430.97,15.49 429.93,15.16 428.01,15.50 C426.25,15.81 424.77,15.43 423.98,14.47 C423.28,13.64 421.93,13.21 420.96,13.51 C418.85,14.18 416.00,11.58 416.00,8.99 C416.00,6.28 414.30,5.63 410.89,7.04 C408.65,7.97 407.30,8.00 405.45,7.16 C403.62,6.32 403.00,6.33 403.00,7.20 C403.00,7.84 401.72,6.93 400.16,5.18 C398.63,3.47 397.63,2.50 396.99,2.22 C409.57,4.45 423.09,8.58 433.50,13.55 C473.96,32.86 503.99,72.74 510.15,115.36 ZM 160.47 510.41 C152.61,511.63 173.77,511.82 331.75,511.90 L 512.00 512.00 L 511.90 331.75 C511.83,187.37 511.64,156.54 510.68,158.99 C510.37,158.48 509.75,157.75 508.85,156.85 C506.77,154.77 506.76,154.65 508.54,153.35 C509.55,152.61 510.75,152.00 511.19,152.00 C511.64,152.00 512.00,233.00 512.00,332.00 L 512.00 512.00 L 332.06 512.00 C152.74,512.00 152.12,511.99 152.27,510.00 C152.39,508.50 153.14,508.00 155.27,508.00 C156.84,508.00 157.87,507.60 157.57,507.11 C157.26,506.62 158.23,505.91 159.72,505.53 C161.66,505.05 162.76,505.32 163.64,506.52 C164.52,507.72 165.49,507.96 167.18,507.39 C168.45,506.95 169.73,506.54 170.00,506.46 C170.27,506.39 171.29,506.03 172.25,505.66 C175.95,504.26 176.79,504.19 177.79,505.19 C178.20,505.60 178.87,505.75 179.87,505.64 C173.23,507.81 166.65,509.45 160.47,510.41 ZM 496.49 201.83 C494.32,206.13 491.97,210.26 489.48,214.12 C489.63,213.48 489.43,213.00 488.99,213.00 C488.46,213.00 488.18,210.45 488.36,207.25 C488.61,202.63 489.00,201.53 490.33,201.64 C491.25,201.71 491.69,201.31 491.33,200.72 C490.91,200.05 491.29,199.91 492.34,200.33 C493.25,200.70 494.79,201.27 495.75,201.59 C496.06,201.70 496.31,201.78 496.49,201.83 ZM 510.48 159.91 C510.47,159.94 510.47,159.97 510.46,160.00 C509.42,166.60 507.68,173.53 505.39,180.44 C505.35,180.26 505.26,180.11 505.12,180.00 C504.56,179.55 504.47,177.30 504.96,176.00 C505.15,175.47 505.86,169.58 506.33,164.46 C506.71,160.49 507.72,158.96 509.53,159.65 C509.93,159.81 510.25,159.89 510.48,159.91 ZM 201.31 496.80 C196.04,499.44 190.52,501.82 184.97,503.86 C185.38,503.56 185.51,503.29 185.26,503.13 C184.24,502.47 184.39,499.28 185.50,498.17 C185.85,497.81 189.49,497.48 193.57,497.43 C197.03,497.38 200.18,497.11 201.31,496.80 ZM 504.26 183.74 C502.09,189.82 499.51,195.85 496.62,201.58 C496.47,201.46 496.27,201.30 496.00,201.11 C494.71,200.18 494.75,200.03 496.29,200.02 C497.65,200.00 497.87,199.58 497.21,198.25 C495.94,195.69 496.50,189.93 498.11,188.91 C498.88,188.43 499.13,188.02 498.68,188.02 C497.12,187.99 500.86,185.00 502.46,185.00 C503.05,185.00 503.71,184.47 504.26,183.74 ZM 509.21 145.15 C508.32,144.58 508.12,143.10 508.57,140.29 C508.98,137.75 508.81,136.00 508.11,135.57 C507.50,135.19 507.01,134.35 507.02,133.69 C507.02,132.98 507.42,133.10 508.00,134.00 C508.84,135.30 508.97,135.28 508.98,133.86 C508.99,132.95 509.67,131.95 510.50,131.64 C511.75,131.16 512.00,132.30 512.00,138.53 C512.00,145.95 511.68,146.72 509.21,145.15 ZM 335.76 354.94 C335.92,355.65 336.00,356.19 336.00,356.53 C336.00,356.54 336.00,356.56 336.00,356.58 C335.93,356.22 335.88,355.86 335.84,355.50 C335.82,355.30 335.79,355.11 335.76,354.94 Z" fill="rgb(3,3,3)"/>
<path d="M 484.43 55.37 C471.12,37.81 453.60,23.14 433.50,13.55 C428.99,11.40 423.90,9.40 418.56,7.65 C435.83,13.11 449.24,20.95 463.89,33.35 C471.43,39.73 478.34,47.20 484.43,55.37 ZM 9.94 424.11 C16.90,441.44 27.44,457.51 40.96,471.06 C26.90,456.97 16.75,441.70 9.94,424.11 ZM 290.45 28.48 C285.99,31.96 280.86,36.49 273.04,43.93 C279.05,38.10 283.17,34.22 284.50,33.13 C286.47,31.51 288.46,29.96 290.45,28.48 ZM 8.49 327.66 C8.49,327.66 8.48,327.67 8.47,327.68 C13.07,314.69 19.33,302.65 27.10,291.95 C19.55,302.35 13.14,314.81 8.49,327.66 ZM 328.38 8.10 C328.28,8.16 328.20,8.23 328.12,8.30 C322.70,10.22 317.38,12.44 312.34,14.89 C317.53,12.29 322.86,10.03 328.38,8.10 ZM 1.35 391.23 L 0.58 386.90 C0.62,385.20 0.66,384.51 0.70,385.00 C0.87,387.08 1.08,389.16 1.35,391.23 ZM 390.93 1.29 C388.90,1.03 386.92,0.82 385.00,0.68 C384.23,0.62 386.39,0.56 390.83,0.50 C388.04,0.55 386.67,0.61 387.00,0.66 C388.33,0.87 389.64,1.08 390.93,1.29 ZM 329.99 7.55 C334.51,6.03 339.15,4.73 343.96,3.63 C339.53,4.67 335.06,5.95 330.64,7.44 C330.42,7.47 330.20,7.51 329.99,7.55 ZM 353.89 1.67 C356.06,1.30 358.26,0.98 360.50,0.69 C360.52,0.69 360.52,0.68 360.52,0.68 C360.52,0.66 359.73,0.64 358.19,0.62 C360.72,0.64 362.06,0.67 362.06,0.69 C362.06,0.70 362.04,0.70 362.00,0.70 C359.36,0.91 356.65,1.23 353.89,1.67 ZM 1.46 355.25 C1.13,357.53 0.88,359.78 0.70,362.00 C0.70,362.04 0.70,362.06 0.69,362.06 C0.67,362.06 0.64,360.72 0.62,358.19 C0.64,359.73 0.66,360.52 0.68,360.52 C0.68,360.52 0.69,360.52 0.69,360.50 C0.92,358.74 1.17,356.99 1.46,355.25 Z" fill="rgb(97,97,97)"/>
<path d="M 390.93 1.29 C389.64,1.08 388.33,0.87 387.00,0.66 C386.75,0.62 387.47,0.58 389.03,0.54 L 398.50 2.46 C400.30,2.82 402.06,3.20 403.78,3.59 C401.50,3.08 399.23,2.62 396.99,2.22 C396.82,2.15 396.68,2.13 396.56,2.15 C394.66,1.82 392.78,1.53 390.93,1.29 ZM 353.89 1.67 C352.49,1.88 351.08,2.13 349.66,2.40 L 358.35 0.62 C359.78,0.64 360.52,0.66 360.52,0.68 C360.52,0.68 360.52,0.69 360.50,0.69 C358.26,0.98 356.06,1.30 353.89,1.67 ZM 1.46 355.25 C1.17,356.99 0.92,358.74 0.69,360.50 C0.69,360.52 0.68,360.52 0.68,360.52 C0.66,360.52 0.64,359.78 0.62,358.35 L 2.24 350.45 C1.94,352.06 1.68,353.66 1.46,355.25 ZM 1.58 392.93 C1.14,390.82 0.77,389.18 0.55,388.47 C0.56,387.88 0.57,387.35 0.58,386.90 L 1.35 391.23 C1.42,391.80 1.50,392.37 1.58,392.93 ZM 327.41 8.44 C322.24,10.30 317.23,12.44 312.34,14.89 C310.63,15.72 308.96,16.57 307.32,17.45 C313.74,13.89 320.36,10.93 327.41,8.44 ZM 8.43 327.73 C13.05,314.66 19.26,302.75 27.10,291.95 C19.33,302.65 13.07,314.69 8.47,327.68 C8.46,327.69 8.45,327.71 8.43,327.73 ZM 407.71 4.52 C414.03,6.09 419.86,7.90 425.37,10.00 C423.16,9.17 420.89,8.39 418.56,7.65 C415.02,6.49 411.37,5.44 407.71,4.52 ZM 290.45 28.48 C288.46,29.96 286.47,31.51 284.50,33.13 C286.67,31.36 288.82,29.67 290.97,28.07 C290.79,28.21 290.62,28.34 290.45,28.48 ZM 9.57 423.17 C9.70,423.49 9.82,423.80 9.94,424.11 C10.60,425.81 11.29,427.49 12.01,429.14 C11.15,427.18 10.34,425.19 9.57,423.17 ZM 7.17 331.46 L 7.16 331.48 C7.12,331.63 7.07,331.77 7.02,331.92 C7.07,331.77 7.12,331.61 7.17,331.46 Z" fill="rgb(137,137,137)"/>
<path d="M 0.00 449.83 C0.00,415.64 0.18,387.85 0.40,388.08 C0.62,388.31 1.55,392.55 2.46,397.50 C7.82,426.53 20.29,450.35 40.96,471.06 C61.93,492.06 87.95,505.45 117.50,510.44 C124.67,511.66 118.96,511.81 62.75,511.90 L 0.00 512.00 L 0.00 449.83 ZM 160.47 510.41 C179.49,507.46 202.41,498.03 218.50,486.55 C223.91,482.69 244.74,462.64 282.80,424.67 C336.74,370.85 339.07,368.37 338.47,365.50 C338.13,363.85 337.75,361.95 337.62,361.28 C337.49,360.61 337.08,359.74 336.70,359.36 C336.31,358.98 336.00,357.71 336.00,356.53 C336.00,353.71 330.31,337.01 325.08,324.50 C310.18,288.85 282.94,252.63 253.00,228.65 C243.53,221.07 224.13,207.86 219.50,205.85 C217.85,205.13 216.27,204.25 216.00,203.89 C215.73,203.53 209.75,200.46 202.72,197.06 C188.91,190.38 161.98,181.07 148.38,178.27 L 139.93 176.54 L 86.58 230.02 C50.57,266.11 31.23,286.25 27.10,291.95 C15.12,308.45 6.94,327.55 2.45,349.42 L 0.18 360.50 L 0.09 180.25 L 0.00 0.00 L 180.25 0.09 L 360.50 0.18 L 349.42 2.45 C323.54,7.76 304.59,16.71 284.50,33.13 C280.65,36.27 253.71,62.67 224.63,91.79 L 171.76 144.74 L 184.63 148.95 C216.54,159.37 245.93,174.97 273.00,195.84 C286.15,205.97 314.30,234.69 324.61,248.50 C340.40,269.64 352.69,291.15 361.48,313.00 C364.02,319.33 366.51,325.40 367.01,326.50 C367.51,327.60 368.42,330.49 369.04,332.91 L 370.17 337.33 L 425.11 282.41 C463.66,243.88 481.87,224.96 486.16,219.00 C497.93,202.63 507.33,179.82 510.46,160.00 C511.62,152.70 511.82,177.04 511.90,331.75 L 512.00 512.00 L 331.75 511.90 C173.77,511.82 152.61,511.63 160.47,510.41 ZM 510.15 115.36 C505.81,85.34 488.00,53.76 463.89,33.35 C444.12,16.61 425.86,7.98 398.50,2.46 L 387.50 0.23 L 449.75 0.12 L 512.00 0.00 L 512.00 62.00 C512.00,96.10 511.87,124.00 511.70,124.00 C511.54,124.00 510.84,120.11 510.15,115.36 ZM 307.56 101.51 C301.92,99.50 298.90,96.96 296.29,92.01 C291.28,82.55 293.91,74.68 305.34,64.95 C319.99,52.47 338.60,43.80 358.00,40.43 C370.62,38.23 391.04,38.86 396.61,41.63 C407.43,47.01 410.53,61.77 402.71,70.68 C397.33,76.81 393.38,77.97 380.03,77.34 C371.57,76.94 366.50,77.21 361.00,78.37 C350.80,80.52 337.07,87.55 328.57,94.96 C322.31,100.42 317.17,103.06 313.00,102.95 C312.17,102.93 309.73,102.28 307.56,101.51 Z" fill="rgb(254,254,254)"/>
</g>
</svg>