<svg xmlns="http://www.w3.org/2000/svg" width="512" height="512" viewBox="0 0 512 512">
<g>
<path d="M 66.86 510.09 L 64.50 508.18 L 64.50 462.84 C64.50,421.67 64.67,416.95 66.34,411.50 C71.06,396.09 81.70,383.24 95.00,376.89 C99.12,374.92 115.18,368.85 130.68,363.42 L 158.86 353.53 L 158.86 348.35 C158.86,337.97 162.49,334.49 183.50,324.69 L 199.50 317.23 L 199.80 311.62 C200.05,306.97 199.82,306.00 198.47,306.00 C191.46,306.00 135.71,291.66 120.67,285.99 C110.65,282.22 104.95,275.56 103.53,265.98 C103.02,262.55 103.48,259.55 105.49,253.20 C111.01,235.77 111.17,234.02 111.97,179.50 C112.78,125.03 113.08,121.43 118.50,102.49 C119.91,97.54 123.70,88.10 126.93,81.50 C147.12,40.15 182.58,12.56 228.00,2.89 C243.04,-0.31 268.96,-0.31 284.00,2.89 C343.29,15.52 386.37,59.89 397.67,119.99 C398.93,126.67 399.44,139.45 400.03,179.50 C400.83,234.02 400.99,235.77 406.51,253.20 C408.52,259.55 408.98,262.55 408.47,265.98 C407.05,275.56 401.35,282.22 391.33,285.99 C376.29,291.66 320.54,306.00 313.53,306.00 C312.18,306.00 311.95,306.97 312.20,311.62 L 312.50 317.23 L 328.50 324.69 C349.49,334.48 353.12,337.96 353.21,348.40 L 353.26 353.57 L 381.38 363.44 C396.85,368.86 412.88,374.92 417.00,376.89 C430.30,383.24 440.94,396.09 445.66,411.50 C447.33,416.95 447.50,421.67 447.50,462.84 L 447.50 508.18 L 445.14 510.09 C441.93,512.69 438.40,512.49 435.45,509.55 L 433.00 507.09 L 433.00 465.68 C433.00,441.90 432.57,421.98 431.99,418.89 C429.80,407.26 421.37,395.73 411.41,390.73 C406.68,388.36 347.15,367.00 345.26,367.00 C344.25,367.00 338.00,375.32 338.00,376.66 C338.00,377.12 339.81,380.20 342.01,383.50 C347.77,392.14 349.34,396.82 348.77,403.72 C348.37,408.65 344.90,416.83 325.21,459.35 C312.51,486.76 301.31,509.81 300.31,510.56 C296.07,513.78 289.00,510.27 289.00,504.96 C289.00,503.31 298.63,481.16 311.50,453.20 C324.54,424.88 334.00,403.10 334.00,401.40 C334.00,399.47 331.80,395.19 327.50,388.76 C323.27,382.44 321.00,378.04 321.00,376.18 C321.00,374.15 323.30,370.26 328.83,362.90 C338.70,349.79 339.28,348.74 337.71,346.67 C337.05,345.79 330.32,342.15 322.77,338.59 L 309.05 332.11 L 308.07 335.80 C307.54,337.84 297.17,377.28 285.04,423.45 C261.70,512.27 261.79,512.00 256.00,512.00 C250.54,512.00 249.63,509.69 238.52,467.45 C232.73,445.48 228.00,426.04 228.00,424.25 C228.00,418.33 234.62,414.87 239.24,418.39 C241.53,420.12 242.54,423.24 249.55,450.25 C252.81,462.76 255.70,473.00 255.99,473.00 C256.49,473.00 278.96,388.74 278.58,388.29 C278.49,388.17 275.95,388.75 272.95,389.59 C269.73,390.48 263.00,391.13 256.50,391.18 C246.99,391.25 242.96,390.73 234.95,388.44 C233.73,388.09 233.48,388.68 233.78,391.28 C234.34,396.01 231.34,399.40 226.61,399.40 C224.61,399.40 222.25,398.68 221.37,397.80 C220.47,396.89 216.11,382.30 211.39,364.35 C206.79,346.83 203.02,332.41 203.01,332.29 C202.97,331.52 175.25,345.40 174.29,346.67 C172.72,348.74 173.30,349.79 183.17,362.90 C188.70,370.26 191.00,374.15 191.00,376.18 C191.00,378.04 188.73,382.44 184.50,388.76 C180.20,395.19 178.00,399.47 178.00,401.40 C178.00,403.10 187.46,424.88 200.50,453.20 C213.37,481.16 223.00,503.31 223.00,504.96 C223.00,508.26 219.04,512.02 215.62,511.97 C212.00,511.91 210.17,509.63 204.75,498.39 L 199.50 487.50 L 199.22 497.70 C198.78,513.23 202.88,512.00 151.37,512.00 C110.52,512.00 108.93,511.93 107.03,510.03 C105.94,508.94 104.79,507.02 104.48,505.76 C104.16,504.50 104.03,492.07 104.20,478.14 C104.58,446.23 102.45,449.00 126.61,449.00 L 144.00 449.00 L 144.00 444.45 C144.00,439.44 146.04,434.58 148.54,433.62 C154.79,431.23 159.00,435.13 159.00,443.31 L 159.00 449.00 L 170.46 449.00 L 181.93 449.00 L 180.06 444.75 C179.03,442.41 174.78,433.08 170.60,424.00 C164.06,409.78 163.01,406.74 163.01,402.00 C163.02,395.93 165.43,389.94 171.26,381.52 L 174.70 376.54 L 171.14 371.77 C169.18,369.15 167.18,367.00 166.69,367.00 C164.84,367.00 105.25,388.39 100.59,390.73 C90.63,395.73 82.20,407.26 80.01,418.89 C79.43,421.98 79.00,441.90 79.00,465.68 L 79.00 507.09 L 76.55 509.55 C73.60,512.49 70.07,512.69 66.86,510.09 ZM 184.00 480.50 L 184.00 464.00 L 171.50 464.00 C159.82,464.00 159.00,464.13 159.00,465.93 C159.00,467.97 154.63,472.00 152.41,472.00 C149.51,472.00 146.04,469.57 145.10,466.86 L 144.10 464.00 L 131.55 464.00 L 119.00 464.00 L 119.00 480.50 L 119.00 497.00 L 151.50 497.00 L 184.00 497.00 L 184.00 480.50 ZM 266.03 375.59 C270.18,374.85 275.85,373.26 278.63,372.06 L 283.70 369.88 L 290.37 344.19 C295.66,323.80 297.04,317.00 297.02,311.25 C297.01,307.26 296.85,304.00 296.66,304.00 C296.47,304.00 293.71,304.90 290.52,305.99 C280.93,309.29 268.35,311.19 256.00,311.19 C243.65,311.19 231.07,309.29 221.48,305.99 C218.29,304.90 215.53,304.00 215.34,304.00 C215.15,304.00 214.99,307.26 214.98,311.25 C214.96,317.00 216.34,323.80 221.63,344.19 L 228.30 369.88 L 233.40 372.08 C238.55,374.29 249.97,376.77 255.50,376.87 C257.15,376.91 261.89,376.33 266.03,375.59 ZM 275.17 294.42 C309.92,287.86 339.37,260.50 348.96,225.89 C351.91,215.24 353.16,199.96 352.81,178.60 L 352.50 159.70 L 346.20 157.98 C337.79,155.68 335.02,151.57 338.06,145.89 C340.11,142.06 343.14,141.90 355.70,144.96 C362.19,146.54 370.42,148.35 374.00,148.98 C377.58,149.62 381.58,150.39 382.90,150.71 L 385.30 151.29 L 384.58 139.90 C383.61,124.52 381.70,114.22 377.57,102.06 C362.76,58.53 326.63,27.15 280.00,17.34 C268.27,14.88 243.73,14.88 232.00,17.34 C183.30,27.59 146.54,61.10 132.48,108.06 C129.78,117.07 127.67,129.37 128.16,133.23 L 128.50 135.96 L 140.50 131.12 C163.13,121.99 182.13,111.57 199.21,98.90 C210.35,90.64 214.32,88.78 222.00,88.24 C231.14,87.59 235.55,89.11 247.26,96.91 C267.80,110.62 285.80,120.36 306.43,128.96 C315.82,132.87 317.53,133.94 318.61,136.58 C320.14,140.34 318.79,143.70 314.84,145.92 C312.41,147.28 311.62,147.17 304.85,144.56 C285.77,137.19 257.43,122.16 240.50,110.42 C232.12,104.61 228.65,103.00 224.50,103.00 C219.94,103.00 216.58,104.73 206.00,112.48 C185.23,127.72 161.46,140.11 137.00,148.44 L 127.50 151.68 L 126.92 191.09 C126.31,233.16 125.81,238.13 120.44,255.31 C117.88,263.48 117.99,266.77 120.89,269.40 C123.08,271.39 151.22,280.10 170.00,284.61 C177.98,286.53 185.33,288.34 186.35,288.65 C187.37,288.95 183.73,284.77 178.27,279.35 C161.02,262.25 151.38,244.53 146.41,220.80 C145.07,214.37 144.66,207.17 144.59,188.79 C144.50,165.65 144.55,165.02 146.69,162.87 C149.66,159.90 154.72,159.93 157.16,162.94 C158.79,164.96 159.00,167.22 159.01,182.86 C159.02,217.56 162.93,234.09 175.61,253.16 C197.61,286.25 235.43,301.93 275.17,294.42 ZM 349.00 282.99 C363.45,279.31 389.41,270.94 391.11,269.40 C394.00,266.79 394.12,263.48 391.60,255.31 C386.02,237.18 385.00,227.70 385.00,194.03 L 385.00 166.21 L 378.25 165.06 C374.54,164.43 370.78,163.70 369.89,163.43 C368.46,163.01 368.23,165.64 367.73,188.23 C367.35,205.84 366.69,215.77 365.57,221.00 C360.48,244.68 350.87,262.36 333.98,279.11 L 324.29 288.72 L 332.89 286.81 C337.63,285.76 344.88,284.04 349.00,282.99 ZM 375.63 485.93 C373.18,484.00 373.00,483.30 373.00,475.93 L 373.00 468.00 L 365.63 468.00 C356.64,468.00 353.00,465.87 353.00,460.60 C353.00,455.00 356.24,453.00 365.31,453.00 L 373.00 453.00 L 373.00 445.17 C373.00,438.29 373.28,437.09 375.31,435.17 C378.17,432.49 382.02,432.39 385.13,434.90 C387.17,436.56 387.52,437.85 387.84,444.90 L 388.21 453.00 L 395.17 453.00 C399.00,453.00 403.02,453.48 404.11,454.06 C407.01,455.61 408.33,459.78 406.98,463.05 C405.47,466.68 402.14,468.00 394.45,468.00 L 388.00 468.00 L 388.00 474.57 C388.00,486.21 382.46,491.30 375.63,485.93 ZM 240.86 264.68 C224.76,259.20 214.10,246.22 213.19,230.99 C212.85,225.28 213.07,224.25 215.01,222.49 C217.13,220.57 218.65,220.50 256.00,220.50 C293.35,220.50 294.87,220.57 296.99,222.49 C298.93,224.25 299.15,225.28 298.81,230.99 C298.13,242.36 291.62,253.09 281.21,259.98 C270.43,267.12 253.73,269.07 240.86,264.68 ZM 266.10 250.83 C271.69,248.91 276.83,245.22 280.01,240.83 C281.65,238.56 283.00,236.32 283.00,235.85 C283.00,235.38 270.85,235.00 256.00,235.00 C241.15,235.00 229.00,235.38 229.00,235.85 C229.00,236.32 230.35,238.56 231.99,240.83 C235.07,245.08 240.22,248.86 245.50,250.76 C249.57,252.23 261.92,252.27 266.10,250.83 ZM 202.87 197.09 C200.80,195.42 200.51,194.33 200.51,188.12 C200.50,182.18 200.85,180.71 202.69,178.86 C205.39,176.17 210.23,175.99 212.99,178.49 C215.92,181.15 215.93,194.07 213.00,197.00 C210.47,199.53 205.92,199.57 202.87,197.09 ZM 299.00 197.00 C296.07,194.07 296.08,181.15 299.01,178.49 C301.77,175.99 306.61,176.17 309.31,178.86 C311.15,180.71 311.50,182.18 311.49,188.12 C311.49,194.33 311.20,195.42 309.13,197.09 C306.08,199.57 301.53,199.53 299.00,197.00 ZM 195.05 165.24 C192.09,162.84 192.00,157.56 194.87,154.68 C196.85,152.71 198.09,152.50 207.92,152.50 C220.47,152.50 223.00,153.70 223.00,159.65 C223.00,165.81 220.58,167.00 208.11,167.00 C199.21,167.00 196.82,166.68 195.05,165.24 ZM 291.00 165.00 C288.30,162.30 288.36,156.89 291.10,154.40 C292.90,152.78 294.79,152.50 304.08,152.50 C313.91,152.50 315.15,152.71 317.13,154.68 C320.00,157.56 319.91,162.84 316.95,165.24 C315.18,166.68 312.79,167.00 303.89,167.00 C294.33,167.00 292.76,166.76 291.00,165.00 Z" fill="rgba(0,0,0,1)"/>
</g>
</svg>