<svg xmlns="http://www.w3.org/2000/svg" width="512" height="512" viewBox="0 0 512 512">
<g>
<path d="M 259.71 510.55 C256.18,511.65 276.13,511.88 383.75,511.93 L 512.00 512.00 L 0.00 512.00 L 0.00 0.00 L 512.00 0.00 L 381.75 0.12 C303.19,0.19 253.59,0.58 256.77,1.11 C268.48,3.06 278.84,11.22 284.33,22.80 L 287.50 29.50 L 287.50 482.50 L 284.82 488.22 C280.06,498.38 269.98,507.34 259.71,510.55 ZM 16.24 202.25 C16.09,295.06 16.17,371.00 16.40,371.00 C16.64,371.00 18.40,368.19 20.33,364.75 C29.52,348.36 46.85,329.79 63.74,318.24 C73.24,311.75 86.29,304.94 97.75,300.49 C101.74,298.95 104.99,297.42 104.98,297.09 C104.97,296.77 103.05,295.16 100.73,293.51 C86.48,283.45 76.31,268.95 70.86,250.95 C68.67,243.68 68.60,242.14 68.24,188.52 C67.99,151.35 68.23,131.43 68.98,127.02 C71.36,112.99 79.37,102.59 92.72,96.22 L 100.50 92.50 L 139.92 92.18 C182.63,91.83 188.66,92.30 197.76,96.76 C204.99,100.30 214.11,110.14 217.15,117.68 L 219.50 123.50 L 219.78 181.78 C220.05,237.70 219.98,240.41 218.00,248.74 C213.98,265.65 203.75,281.69 190.73,291.50 C187.08,294.25 184.07,296.77 184.05,297.10 C184.02,297.43 186.86,298.48 190.36,299.43 C198.76,301.70 213.74,309.29 224.13,316.53 C236.82,325.38 256.16,345.28 264.81,358.40 L 272.00 369.31 L 271.99 202.40 C271.99,97.20 271.63,34.21 271.01,32.00 C269.70,27.26 264.70,21.42 259.65,18.72 L 255.50 16.50 L 144.50 16.50 C38.11,16.50 33.35,16.58 30.00,18.36 C25.10,20.97 21.18,24.82 18.66,29.50 L 16.50 33.50 ZM 32.46 494.94 C34.13,495.42 84.55,495.86 144.50,495.90 L 253.50 495.98 L 258.54 493.63 C263.93,491.12 268.47,486.50 270.65,481.28 C272.73,476.33 272.53,427.45 270.38,414.93 C264.46,380.37 244.62,349.61 215.74,330.23 C212.02,327.73 208.77,325.90 208.51,326.16 C208.25,326.41 209.34,331.77 210.92,338.06 C212.51,344.35 214.13,352.12 214.53,355.32 L 215.25 361.13 L 220.37 363.41 C226.15,365.97 232.28,372.20 235.08,378.36 C237.73,384.20 237.65,395.96 234.92,402.00 C230.64,411.49 220.75,418.55 210.25,419.61 C198.78,420.78 185.76,412.82 180.97,401.71 C174.92,387.71 181.18,370.45 194.66,363.92 L 199.20 361.73 L 198.54 356.48 C197.48,348.03 193.44,332.90 189.84,323.90 L 186.50 315.56 L 180.98 313.89 C170.90,310.84 155.71,308.73 143.50,308.69 C131.51,308.65 117.56,310.38 115.31,312.19 C113.76,313.44 109.56,324.48 105.47,338.10 L 102.20 348.98 L 108.08 351.62 C114.93,354.69 121.46,361.19 125.05,368.50 C127.48,373.45 127.50,373.80 127.80,406.24 L 128.10 438.99 L 125.60 441.49 C123.43,443.66 122.20,444.00 116.47,444.00 C110.48,444.00 109.57,443.72 106.92,441.08 C105.32,439.47 104.00,437.32 104.00,436.30 C104.00,433.66 106.78,430.03 109.65,428.94 L 112.09 428.01 L 111.80 402.17 L 111.50 376.32 L 108.67 372.24 C104.92,366.83 100.06,364.51 92.50,364.50 C84.93,364.50 79.58,367.15 75.50,372.92 L 72.50 377.17 L 72.19 402.55 L 71.88 427.93 L 74.46 428.58 C80.08,429.99 81.81,437.28 77.55,441.55 C75.43,443.66 74.17,444.00 68.47,444.00 C62.48,444.00 61.57,443.72 58.92,441.08 L 56.00 438.15 L 56.00 409.29 C56.00,372.57 57.04,367.96 67.64,357.81 C71.50,354.12 81.04,349.03 84.14,349.01 C85.34,349.00 86.35,346.89 87.90,341.15 C89.06,336.83 91.11,330.08 92.45,326.15 C93.79,322.22 94.46,319.00 93.95,319.00 C93.44,319.00 89.36,321.03 84.89,323.50 C55.33,339.85 33.74,365.79 23.00,397.84 C17.65,413.82 16.59,422.69 16.54,452.00 C16.50,477.49 16.58,478.66 18.72,482.64 C21.35,487.56 28.21,493.70 32.46,494.94 ZM 512.00 243.09 L 509.55 245.55 L 507.09 248.00 L 415.51 248.00 C410.96,248.00 406.62,248.00 402.49,248.00 C328.82,248.01 321.29,248.01 316.09,244.53 C315.20,243.94 314.39,243.25 313.33,242.44 C311.52,241.06 308.80,237.81 307.27,235.22 L 304.50 230.50 L 304.50 160.00 C304.50,95.31 304.64,89.24 306.21,86.37 C309.06,81.18 313.02,77.04 317.38,74.71 L 321.50 72.50 L 455.66 72.50 L 460.55 75.53 C463.58,77.40 466.60,80.42 468.47,83.45 L 471.50 88.34 L 472.07 134.42 C472.60,177.21 472.80,181.05 474.76,188.15 C479.56,205.58 490.95,221.40 506.16,231.79 C508.73,233.54 511.05,235.54 511.33,236.24 C511.34,236.24 511.34,236.24 511.34,236.24 C511.62,236.24 511.88,183.64 511.92,118.75 L 512.00 0.00 L 512.00 243.09 ZM 512.00 298.23 L 512.00 405.61 L 509.40 410.83 C507.96,413.70 505.35,417.15 503.59,418.50 C502.56,419.29 501.76,419.96 500.89,420.54 C495.72,424.01 488.22,424.01 414.21,424.00 C410.17,424.00 405.93,424.00 401.49,424.00 L 309.91 424.00 L 307.45 421.55 C305.07,419.16 304.37,415.80 305.60,412.60 C305.93,411.74 308.97,409.05 312.35,406.64 C322.96,399.06 332.89,387.14 337.52,376.45 C343.07,363.62 343.24,362.32 343.91,329.00 C344.44,302.06 344.78,297.05 346.23,294.37 C349.03,289.21 353.01,285.04 357.38,282.71 C361.48,280.51 361.76,280.50 424.00,280.19 C458.38,280.02 488.86,280.16 491.74,280.51 C499.15,281.40 505.65,286.00 509.21,292.86 L 512.00 298.23 ZM 322.92 229.08 L 325.85 232.00 L 481.04 232.00 L 475.46 224.75 C468.53,215.74 461.87,202.15 458.92,191.00 C456.79,182.98 456.63,179.96 456.08,137.16 L 455.50 91.82 L 453.14 89.91 C450.87,88.08 448.33,88.00 389.54,88.00 C349.36,88.00 327.26,88.36 325.29,89.05 C323.63,89.63 321.76,91.22 321.14,92.60 C320.32,94.38 320.00,113.78 320.00,160.62 L 320.00 226.15 ZM 336.58 406.86 C336.06,407.71 355.80,408.00 413.49,408.00 L 491.09 408.00 L 493.55 405.55 L 496.00 403.09 L 496.00 300.91 L 493.55 298.45 L 491.09 296.00 L 429.69 296.00 C388.85,296.00 367.28,296.36 365.24,297.06 C363.43,297.70 361.76,299.22 361.13,300.81 C360.51,302.40 359.92,315.38 359.71,332.50 C359.37,359.03 359.15,362.14 357.10,369.00 C353.90,379.71 348.13,391.45 342.31,399.11 C339.55,402.75 336.97,406.24 336.58,406.86 ZM 132.00 290.56 C135.40,291.42 140.93,291.83 146.50,291.62 C170.88,290.69 192.10,274.77 200.80,250.88 C203.43,243.64 203.49,242.97 203.81,215.75 L 204.14 188.00 L 83.79 188.00 L 84.27 214.75 C84.68,237.91 85.01,242.32 86.74,247.61 C93.88,269.51 110.20,284.99 132.00,290.56 ZM 84.00 151.68 L 84.00 172.00 L 204.10 172.00 L 203.50 125.34 L 200.48 120.45 C196.98,114.79 191.04,110.26 185.43,108.96 C183.27,108.46 164.82,108.04 144.43,108.02 C101.13,108.00 99.48,108.24 91.86,115.86 C84.90,122.82 84.00,126.93 84.00,151.68 ZM 393.38 185.71 C390.24,188.85 386.47,188.63 382.92,185.08 C379.67,181.82 379.53,180.90 381.09,172.47 C382.58,164.39 385.94,158.21 393.61,149.41 C401.86,139.95 403.45,136.39 401.94,130.78 C398.07,116.41 376.77,117.19 374.50,131.78 C373.24,139.89 369.23,143.67 363.86,141.80 C357.75,139.67 356.42,133.30 360.06,123.57 C362.56,116.88 368.70,110.30 375.52,106.98 C379.43,105.08 382.11,104.56 388.00,104.56 C397.71,104.55 404.37,107.39 410.44,114.14 C415.77,120.07 418.00,126.22 418.00,134.98 C418.00,143.33 415.38,148.89 407.03,158.31 C399.75,166.51 397.09,171.44 396.28,178.28 C395.87,181.72 394.92,184.18 393.38,185.71 ZM 173.55 45.55 L 171.09 48.00 L 144.60 48.00 C118.26,48.00 118.10,47.99 115.39,45.66 C113.44,43.99 112.67,42.37 112.67,40.00 C112.67,37.63 113.44,36.01 115.39,34.34 C118.10,32.01 118.26,32.00 144.60,32.00 L 171.09 32.00 L 173.55 34.45 C175.09,36.00 176.00,38.05 176.00,40.00 C176.00,41.95 175.09,44.00 173.55,45.55 ZM 149.55 157.55 C144.78,162.31 137.54,159.22 136.37,151.93 C135.79,148.28 135.51,148.00 132.46,148.00 C128.78,148.00 124.00,143.40 124.00,139.85 C124.00,136.76 129.34,132.00 132.80,132.00 C135.44,132.00 135.81,131.61 136.36,128.17 C137.07,123.70 139.38,121.27 143.75,120.40 C148.04,119.54 152.00,123.41 152.00,128.45 C152.00,131.85 152.15,132.00 155.55,132.00 C160.13,132.00 164.00,135.67 164.00,140.00 C164.00,144.33 160.13,148.00 155.55,148.00 C152.15,148.00 152.00,148.15 152.00,151.55 C152.00,153.98 151.23,155.86 149.55,157.55 ZM 203.45 402.64 C208.89,405.10 216.10,402.84 219.53,397.59 C225.32,388.75 219.15,377.01 208.70,377.00 C200.82,377.00 195.01,382.79 195.00,390.67 C195.00,395.49 198.45,400.39 203.45,402.64 ZM 0.11 18.25 C0.19,31.74 0.45,35.33 1.10,32.00 C2.47,24.95 7.56,15.66 12.57,11.04 C17.61,6.40 25.50,2.38 32.18,1.07 C35.26,0.46 31.26,0.19 18.25,0.11 L 0.00 0.00 ZM 0.11 493.75 L 0.00 512.00 L 16.75 511.97 L 33.50 511.93 L 28.49 510.20 C13.85,505.14 3.88,494.09 1.07,479.82 C0.46,476.74 0.19,480.74 0.11,493.75 ZM 394.20 213.31 C389.40,217.91 382.47,216.16 380.08,209.75 C377.97,204.11 381.97,199.00 388.50,199.00 C392.01,199.00 393.26,199.51 394.93,201.63 C397.91,205.42 397.62,210.03 394.20,213.31 ZM 401.55 357.55 C400.19,358.90 397.92,360.00 396.47,360.00 C393.26,360.00 388.00,355.03 388.00,352.00 C388.00,348.97 393.26,344.00 396.47,344.00 C400.10,344.00 404.00,348.14 404.00,352.00 C404.00,353.95 403.09,356.00 401.55,357.55 ZM 433.55 357.55 C432.19,358.90 429.92,360.00 428.47,360.00 C425.26,360.00 420.00,355.03 420.00,352.00 C420.00,348.97 425.26,344.00 428.47,344.00 C432.10,344.00 436.00,348.14 436.00,352.00 C436.00,353.95 435.09,356.00 433.55,357.55 ZM 465.55 357.55 C464.19,358.90 461.92,360.00 460.47,360.00 C457.26,360.00 452.00,355.03 452.00,352.00 C452.00,348.97 457.26,344.00 460.47,344.00 C464.10,344.00 468.00,348.14 468.00,352.00 C468.00,353.95 467.09,356.00 465.55,357.55 Z" fill="rgb(0,0,0)"/>
<path d="M 3.11 25.54 C7.62,13.98 14.76,7.02 26.41,2.75 C21.33,4.66 16.21,7.69 12.57,11.04 C9.00,14.33 5.39,20.00 3.11,25.54 ZM 7.30 494.64 C12.19,501.67 19.45,507.08 28.49,510.20 C18.94,506.90 12.11,501.95 7.30,494.64 ZM 268.38 5.30 C275.25,9.17 280.68,15.10 284.33,22.80 C280.75,15.26 275.11,9.17 268.38,5.30 ZM 260.97 0.81 C258.12,0.97 257.54,1.17 258.50,1.41 C259.09,1.55 259.67,1.71 260.24,1.88 C259.10,1.56 257.94,1.31 256.77,1.11 C256.14,1.01 257.60,0.91 260.97,0.81 ZM 28.91 1.89 L 32.96 0.60 C33.40,0.73 33.12,0.88 32.18,1.07 C31.11,1.28 30.02,1.56 28.91,1.89 ZM 0.60 479.03 C0.73,478.60 0.88,478.88 1.07,479.82 C1.21,480.56 1.38,481.29 1.56,482.00 ZM 0.59 32.99 L 1.63 29.77 C1.42,30.53 1.24,31.28 1.10,32.00 C0.89,33.05 0.73,33.41 0.59,32.99 Z" fill="rgb(83,83,83)"/>
<path d="M 0.18 24.87 C0.32,30.11 0.62,31.35 1.20,30.00 C1.71,28.79 2.21,27.63 2.72,26.53 C2.30,27.63 1.93,28.72 1.63,29.77 L 0.59 32.99 C0.38,32.34 0.25,29.75 0.18,24.87 ZM 26.94 2.55 C28.23,1.99 29.35,1.50 30.00,1.22 C31.33,0.64 30.29,0.34 25.40,0.19 C29.82,0.27 32.26,0.40 32.96,0.60 L 28.91 1.89 C28.26,2.09 27.60,2.31 26.94,2.55 ZM 0.60 479.03 L 1.56 482.00 C1.75,482.76 1.96,483.50 2.20,484.23 C1.89,483.53 1.56,482.79 1.22,482.00 C0.64,480.67 0.34,481.71 0.19,486.60 C0.27,482.17 0.40,479.72 0.60,479.03 ZM 265.32 0.72 C259.87,0.91 258.52,1.15 259.55,1.48 C261.96,2.24 264.22,3.15 266.33,4.21 C264.37,3.24 262.34,2.46 260.24,1.88 C259.67,1.71 259.09,1.55 258.50,1.41 C257.54,1.17 258.12,0.97 260.97,0.81 C262.17,0.78 263.63,0.75 265.32,0.72 ZM 14.21 9.50 C15.47,8.43 16.80,7.49 18.23,6.64 C16.80,7.52 15.46,8.47 14.21,9.50 Z" fill="rgb(157,157,157)"/>
<path d="M 0.07 495.75 C0.12,483.15 0.38,480.06 1.22,482.00 C5.68,492.26 7.19,495.00 10.46,498.76 C14.64,503.55 21.07,507.64 28.49,510.20 L 33.50 511.93 L 16.75 511.97 L 0.00 512.00 L 0.07 495.75 ZM 259.71 510.55 C269.98,507.34 280.06,498.38 284.82,488.22 L 287.50 482.50 L 287.50 256.00 L 287.50 29.50 L 284.33 22.80 C279.31,12.22 271.06,5.11 259.55,1.48 C256.21,0.42 277.94,0.18 383.75,0.10 L 512.00 0.00 L 511.92 118.75 C511.88,184.06 511.61,236.93 511.33,236.24 C511.05,235.54 508.73,233.54 506.16,231.79 C490.95,221.40 479.56,205.58 474.76,188.15 C472.80,181.05 472.60,177.21 472.07,134.42 L 471.50 88.34 L 468.47 83.45 C466.60,80.42 463.58,77.40 460.55,75.53 L 455.66 72.50 L 388.58 72.50 L 321.50 72.50 L 317.38 74.71 C313.02,77.04 309.06,81.18 306.21,86.37 C304.64,89.24 304.50,95.31 304.50,160.00 L 304.50 230.50 L 307.27 235.22 C308.80,237.81 311.52,241.06 313.33,242.44 C320.99,248.28 315.86,248.00 415.51,248.00 L 507.09 248.00 L 509.55 245.55 L 512.00 243.09 L 512.00 270.66 L 512.00 298.23 L 509.21 292.86 C505.65,286.00 499.15,281.40 491.74,280.51 C488.86,280.16 458.38,280.02 424.00,280.19 C361.76,280.50 361.48,280.51 357.38,282.71 C353.01,285.04 349.03,289.21 346.23,294.37 C344.78,297.05 344.44,302.06 343.91,329.00 C343.24,362.32 343.07,363.62 337.52,376.45 C332.89,387.14 322.96,399.06 312.35,406.64 C308.97,409.05 305.93,411.74 305.60,412.60 C304.37,415.80 305.07,419.16 307.45,421.55 L 309.91 424.00 L 401.49 424.00 C501.02,424.00 496.02,424.27 503.59,418.50 C505.35,417.15 507.96,413.70 509.40,410.83 L 512.00 405.61 L 512.00 458.80 L 512.00 512.00 L 383.75 511.93 C276.13,511.88 256.18,511.65 259.71,510.55 ZM 32.46 494.94 C28.21,493.70 21.35,487.56 18.72,482.64 C16.58,478.66 16.50,477.49 16.54,452.00 C16.59,422.69 17.65,413.82 23.00,397.84 C33.74,365.79 55.33,339.85 84.89,323.50 C89.36,321.03 93.44,319.00 93.95,319.00 C94.46,319.00 93.79,322.22 92.45,326.15 C91.11,330.08 89.06,336.83 87.90,341.15 C86.35,346.89 85.34,349.00 84.14,349.01 C81.04,349.03 71.50,354.12 67.64,357.81 C57.04,367.96 56.00,372.57 56.00,409.29 L 56.00 438.15 L 58.92 441.08 C61.57,443.72 62.48,444.00 68.47,444.00 C74.17,444.00 75.43,443.66 77.55,441.55 C81.81,437.28 80.08,429.99 74.46,428.58 L 71.88 427.93 L 72.19 402.55 L 72.50 377.17 L 75.50 372.92 C79.58,367.15 84.93,364.50 92.50,364.50 C100.06,364.51 104.92,366.83 108.67,372.24 L 111.50 376.32 L 111.80 402.17 L 112.09 428.01 L 109.65 428.94 C106.78,430.03 104.00,433.66 104.00,436.30 C104.00,437.32 105.32,439.47 106.92,441.08 C109.57,443.72 110.48,444.00 116.47,444.00 C122.20,444.00 123.43,443.66 125.60,441.49 L 128.10 438.99 L 127.80 406.24 C127.50,373.80 127.48,373.45 125.05,368.50 C121.46,361.19 114.93,354.69 108.08,351.62 L 102.20 348.98 L 105.47 338.10 C109.56,324.48 113.76,313.44 115.31,312.19 C117.56,310.38 131.51,308.65 143.50,308.69 C155.71,308.73 170.90,310.84 180.98,313.89 L 186.50 315.56 L 189.84 323.90 C193.44,332.90 197.48,348.03 198.54,356.48 L 199.20 361.73 L 194.66 363.92 C181.18,370.45 174.92,387.71 180.97,401.71 C185.76,412.82 198.78,420.78 210.25,419.61 C220.75,418.55 230.64,411.49 234.92,402.00 C237.65,395.96 237.73,384.20 235.08,378.36 C232.28,372.20 226.15,365.97 220.37,363.41 L 215.25 361.13 L 214.53 355.32 C214.13,352.12 212.51,344.35 210.92,338.06 C209.34,331.77 208.25,326.41 208.51,326.16 C208.77,325.90 212.02,327.73 215.74,330.23 C244.62,349.61 264.46,380.37 270.38,414.93 C272.53,427.45 272.73,476.33 270.65,481.28 C268.47,486.50 263.93,491.12 258.54,493.63 L 253.50 495.98 L 144.50 495.90 C84.55,495.86 34.13,495.42 32.46,494.94 ZM 336.58 406.86 C336.97,406.24 339.55,402.75 342.31,399.11 C348.13,391.45 353.90,379.71 357.10,369.00 C359.15,362.14 359.37,359.03 359.71,332.50 C359.92,315.38 360.51,302.40 361.13,300.81 C361.76,299.22 363.43,297.70 365.24,297.06 C367.28,296.36 388.85,296.00 429.69,296.00 L 491.09 296.00 L 493.55 298.45 L 496.00 300.91 L 496.00 352.00 L 496.00 403.09 L 493.55 405.55 L 491.09 408.00 L 413.49 408.00 C355.80,408.00 336.06,407.71 336.58,406.86 ZM 401.55 357.55 C403.09,356.00 404.00,353.95 404.00,352.00 C404.00,348.14 400.10,344.00 396.47,344.00 C393.26,344.00 388.00,348.97 388.00,352.00 C388.00,355.03 393.26,360.00 396.47,360.00 C397.92,360.00 400.19,358.90 401.55,357.55 ZM 433.55 357.55 C435.09,356.00 436.00,353.95 436.00,352.00 C436.00,348.14 432.10,344.00 428.47,344.00 C425.26,344.00 420.00,348.97 420.00,352.00 C420.00,355.03 425.26,360.00 428.47,360.00 C429.92,360.00 432.19,358.90 433.55,357.55 ZM 465.55 357.55 C467.09,356.00 468.00,353.95 468.00,352.00 C468.00,348.14 464.10,344.00 460.47,344.00 C457.26,344.00 452.00,348.97 452.00,352.00 C452.00,355.03 457.26,360.00 460.47,360.00 C461.92,360.00 464.19,358.90 465.55,357.55 ZM 203.45 402.64 C198.45,400.39 195.00,395.49 195.00,390.67 C195.01,382.79 200.82,377.00 208.70,377.00 C219.15,377.01 225.32,388.75 219.53,397.59 C216.10,402.84 208.89,405.10 203.45,402.64 ZM 16.24 202.25 L 16.50 33.50 L 18.66 29.50 C21.18,24.82 25.10,20.97 30.00,18.36 C33.35,16.58 38.11,16.50 144.50,16.50 L 255.50 16.50 L 259.65 18.72 C264.70,21.42 269.70,27.26 271.01,32.00 C271.63,34.21 271.99,97.20 271.99,202.40 L 272.00 369.31 L 264.81 358.40 C256.16,345.28 236.82,325.38 224.13,316.53 C213.74,309.29 198.76,301.70 190.36,299.43 C186.86,298.48 184.02,297.43 184.05,297.10 C184.07,296.77 187.08,294.25 190.73,291.50 C203.75,281.69 213.98,265.65 218.00,248.74 C219.98,240.41 220.05,237.70 219.78,181.78 L 219.50 123.50 L 217.15 117.68 C214.11,110.14 204.99,100.30 197.76,96.76 C188.66,92.30 182.63,91.83 139.92,92.18 L 100.50 92.50 L 92.72 96.22 C79.37,102.59 71.36,112.99 68.98,127.02 C68.23,131.43 67.99,151.35 68.24,188.52 C68.60,242.14 68.67,243.68 70.86,250.95 C76.31,268.95 86.48,283.45 100.73,293.51 C103.05,295.16 104.97,296.77 104.98,297.09 C104.99,297.42 101.74,298.95 97.75,300.49 C86.29,304.94 73.24,311.75 63.74,318.24 C46.85,329.79 29.52,348.36 20.33,364.75 C18.40,368.19 16.64,371.00 16.40,371.00 C16.17,371.00 16.09,295.06 16.24,202.25 ZM 173.55 45.55 C175.09,44.00 176.00,41.95 176.00,40.00 C176.00,38.05 175.09,36.00 173.55,34.45 L 171.09 32.00 L 144.60 32.00 C118.26,32.00 118.10,32.01 115.39,34.34 C113.44,36.01 112.67,37.63 112.67,40.00 C112.67,42.37 113.44,43.99 115.39,45.66 C118.10,47.99 118.26,48.00 144.60,48.00 L 171.09 48.00 L 173.55 45.55 ZM 132.00 290.56 C110.20,284.99 93.88,269.51 86.74,247.61 C85.01,242.32 84.68,237.91 84.27,214.75 L 83.79 188.00 L 143.96 188.00 L 204.14 188.00 L 203.81 215.75 C203.49,242.97 203.43,243.64 200.80,250.88 C192.10,274.77 170.88,290.69 146.50,291.62 C140.93,291.83 135.40,291.42 132.00,290.56 ZM 322.92 229.08 L 320.00 226.15 L 320.00 160.62 C320.00,113.78 320.32,94.38 321.14,92.60 C321.76,91.22 323.63,89.63 325.29,89.05 C327.26,88.36 349.36,88.00 389.54,88.00 C448.33,88.00 450.87,88.08 453.14,89.91 L 455.50 91.82 L 456.08 137.16 C456.63,179.96 456.79,182.98 458.92,191.00 C461.87,202.15 468.53,215.74 475.46,224.75 L 481.04 232.00 L 403.44 232.00 L 325.85 232.00 L 322.92 229.08 ZM 394.20 213.31 C397.62,210.03 397.91,205.42 394.93,201.63 C393.26,199.51 392.01,199.00 388.50,199.00 C381.97,199.00 377.97,204.11 380.08,209.75 C382.47,216.16 389.40,217.91 394.20,213.31 ZM 393.38 185.71 C394.92,184.18 395.87,181.72 396.28,178.28 C397.09,171.44 399.75,166.51 407.03,158.31 C415.38,148.89 418.00,143.33 418.00,134.98 C418.00,126.22 415.77,120.07 410.44,114.14 C404.37,107.39 397.71,104.55 388.00,104.56 C382.11,104.56 379.43,105.08 375.52,106.98 C368.70,110.30 362.56,116.88 360.06,123.57 C356.42,133.30 357.75,139.67 363.86,141.80 C369.23,143.67 373.24,139.89 374.50,131.78 C376.77,117.19 398.07,116.41 401.94,130.78 C403.45,136.39 401.86,139.95 393.61,149.41 C385.94,158.21 382.58,164.39 381.09,172.47 C379.53,180.90 379.67,181.82 382.92,185.08 C386.47,188.63 390.24,188.85 393.38,185.71 ZM 84.00 151.68 C84.00,126.93 84.90,122.82 91.86,115.86 C99.48,108.24 101.13,108.00 144.43,108.02 C164.82,108.04 183.27,108.46 185.43,108.96 C191.04,110.26 196.98,114.79 200.48,120.45 L 203.50 125.34 L 203.80 148.67 L 204.10 172.00 L 144.05 172.00 L 84.00 172.00 L 84.00 151.68 ZM 149.55 157.55 C151.23,155.86 152.00,153.98 152.00,151.55 C152.00,148.15 152.15,148.00 155.55,148.00 C160.13,148.00 164.00,144.33 164.00,140.00 C164.00,135.67 160.13,132.00 155.55,132.00 C152.15,132.00 152.00,131.85 152.00,128.45 C152.00,123.41 148.04,119.54 143.75,120.40 C139.38,121.27 137.07,123.70 136.36,128.17 C135.81,131.61 135.44,132.00 132.80,132.00 C129.34,132.00 124.00,136.76 124.00,139.85 C124.00,143.40 128.78,148.00 132.46,148.00 C135.51,148.00 135.79,148.28 136.37,151.93 C137.54,159.22 144.78,162.31 149.55,157.55 ZM 0.07 16.25 L 0.00 0.00 L 16.25 0.07 C28.85,0.12 31.94,0.38 30.00,1.22 C28.62,1.82 25.17,3.32 22.32,4.56 C12.75,8.74 7.56,14.98 1.20,30.00 C0.39,31.91 0.12,28.65 0.07,16.25 Z" fill="rgb(254,254,254)"/>
</g>
</svg>