<svg xmlns="http://www.w3.org/2000/svg" width="1000" height="1048" viewBox="0 0 1000 1048">
<g>
<path d="M 416.67 994.34 C416.30,993.97 416.00,935.30 416.00,863.96 C416.00,759.52 416.25,734.04 417.29,733.18 C417.99,732.59 423.50,731.62 429.54,731.03 C485.66,725.47 542.48,705.51 587.50,675.56 C605.98,663.27 623.59,649.00 620.28,649.00 C619.85,649.00 616.61,650.74 612.43,653.19 C616.61,650.74 619.84,649.00 620.27,649.00 C622.84,649.00 650.23,623.51 661.63,610.50 C683.13,585.98 699.16,558.75 710.46,527.56 C716.21,511.69 719.05,501.10 722.94,481.00 C724.78,471.52 726.17,461.80 727.14,451.86 C726.79,457.11 726.48,461.20 726.31,462.75 L 725.75 467.99 L 828.62 468.25 L 931.50 468.50 L 931.50 681.50 L 631.50 682.50 L 630.50 994.50 L 523.92 994.75 C465.30,994.89 417.04,994.71 416.67,994.34 ZM 369.42 643.92 C326.24,659.16 277.05,669.94 223.50,675.89 C195.25,679.03 164.56,680.98 139.00,681.25 L 115.50 681.50 L 115.50 468.50 L 226.95 468.25 C288.24,468.11 338.73,468.33 339.14,468.75 C339.56,469.16 338.19,473.33 336.11,478.00 C331.44,488.50 328.72,496.69 325.83,509.00 C323.90,517.23 323.60,521.31 323.59,539.50 C323.57,559.00 323.76,561.26 326.25,571.09 C331.18,590.58 337.39,605.43 347.97,623.00 C354.40,633.67 359.93,641.41 360.63,640.70 C360.84,640.49 360.15,636.08 359.09,630.91 C357.74,624.29 356.70,618.50 355.90,613.04 C356.69,618.30 357.74,624.05 359.13,631.00 C360.29,636.78 361.32,642.07 361.43,642.76 C361.84,645.50 363.14,645.97 369.42,643.92 ZM 416.46 381.75 C416.20,381.06 416.10,335.27 416.24,280.00 L 416.50 179.50 L 513.25 179.25 C580.98,179.07 610.00,179.31 610.00,180.05 C610.00,182.29 602.56,198.94 597.29,208.50 C574.51,249.81 542.78,284.80 487.00,330.12 C474.43,340.34 418.38,383.00 417.53,383.00 C417.20,383.00 416.72,382.44 416.46,381.75 ZM 510.43 690.45 C497.83,692.10 474.92,692.41 458.04,691.36 C474.87,692.28 498.81,691.97 510.43,690.45 ZM 354.05 593.69 C353.85,589.54 353.77,585.22 353.77,580.50 C353.79,561.85 355.80,544.83 359.97,529.03 C355.78,544.96 353.79,562.13 353.81,581.00 C353.81,585.67 353.88,589.80 354.05,593.69 ZM 393.02 634.79 C389.90,636.15 387.02,637.34 384.50,638.33 C383.99,638.53 383.47,638.73 382.95,638.93 C386.24,637.63 389.61,636.25 393.02,634.79 ZM 459.28 598.84 C458.85,600.42 456.80,601.96 450.50,605.81 C448.84,606.82 447.11,607.85 445.32,608.89 C446.65,608.13 447.88,607.41 449.00,606.73 C456.54,602.15 458.83,600.49 459.28,598.84 ZM 418.00 684.60 L 418.00 684.60 C418.00,683.97 420.96,681.02 424.69,677.91 C420.97,681.01 418.02,683.96 418.00,684.60 Z" fill="rgba(24,88,157,1)"/>
<path d="M 447.00 690.44 C429.43,688.22 418.00,685.92 418.00,684.61 C418.00,683.94 421.26,680.72 425.25,677.45 C441.06,664.49 457.37,649.69 475.50,631.86 L 494.50 613.18 L 509.12 612.10 C543.38,609.55 574.25,601.34 601.61,587.49 C614.77,580.84 632.04,569.85 630.28,569.26 C629.67,569.06 624.75,571.11 619.34,573.82 C590.85,588.07 557.19,596.61 521.75,598.57 C506.87,599.39 506.64,599.19 513.32,591.48 C531.68,570.29 555.55,537.81 568.67,516.15 L 575.55 504.79 L 587.03 501.33 C607.32,495.21 623.73,487.08 642.22,474.00 C652.38,466.82 670.84,449.78 669.10,449.20 C668.49,449.00 664.64,451.35 660.55,454.43 C640.38,469.61 613.25,482.67 592.74,487.08 C589.58,487.76 586.69,488.02 586.32,487.65 C585.95,487.29 590.20,477.65 595.76,466.24 C618.87,418.84 634.65,369.96 644.55,315.20 C648.16,295.19 647.20,293.59 642.62,312.00 C630.96,358.87 616.14,399.75 596.79,438.45 C585.89,460.23 578.81,472.43 565.41,492.50 C551.44,513.42 550.38,514.79 549.16,513.50 C547.45,511.70 541.21,490.75 539.06,479.58 C535.12,459.12 534.56,427.76 537.83,410.75 C539.29,403.17 537.42,405.26 535.14,413.75 C530.53,430.93 529.55,439.51 529.53,462.50 C529.52,486.44 530.63,495.92 535.91,516.67 C537.31,522.19 538.27,525.03 537.86,527.65 C537.28,531.32 533.98,534.57 525.39,544.18 C511.45,559.76 476.57,590.00 472.55,590.00 C469.37,590.00 461.51,561.71 457.41,535.50 C456.17,527.61 455.67,518.19 455.64,502.18 C455.59,477.31 454.91,476.69 451.93,498.86 C448.24,526.30 449.71,555.17 456.17,582.50 C457.86,589.65 459.30,596.58 459.37,597.91 C459.48,599.92 458.00,601.23 450.50,605.81 C430.04,618.30 399.19,633.08 375.11,641.92 C363.84,646.06 361.95,646.18 361.43,642.76 C361.32,642.07 360.29,636.78 359.13,631.00 C354.89,609.84 353.82,599.85 353.81,581.00 C353.75,523.98 372.05,482.40 414.00,444.22 C426.74,432.62 445.24,417.84 474.51,395.86 C499.91,376.78 522.99,358.53 538.00,345.64 C596.34,295.54 631.58,248.71 653.65,191.94 C656.20,185.37 658.78,180.00 659.39,180.00 C660.91,180.01 673.35,202.22 682.34,221.00 C723.16,306.21 738.18,402.36 722.94,481.00 C719.05,501.10 716.21,511.69 710.46,527.56 C699.16,558.75 683.13,585.98 661.63,610.50 C650.23,623.51 622.84,649.00 620.27,649.00 C619.71,649.00 614.36,651.97 608.38,655.61 C577.34,674.45 545.20,685.89 510.43,690.45 C495.89,692.35 462.05,692.35 447.00,690.44 ZM 455.07 478.81 C455.03,479.53 455.45,479.84 456.00,479.50 C456.55,479.16 456.97,477.67 456.93,476.19 C456.87,473.79 456.77,473.71 456.00,475.50 C455.53,476.60 455.11,478.09 455.07,478.81 Z" fill="rgba(200,216,60,1)"/>
<path d="M 455.07 478.81 C455.11,478.09 455.53,476.60 456.00,475.50 C456.77,473.71 456.87,473.79 456.93,476.19 C456.97,477.67 456.55,479.16 456.00,479.50 C455.45,479.84 455.03,479.53 455.07,478.81 Z" fill="rgba(241,244,232,1)"/>
</g>
</svg>