<svg xmlns="http://www.w3.org/2000/svg" width="804" height="310" viewBox="0 0 804 310">
<g>
<path d="M 722.50 271.65 C711.29,267.94 702.80,260.24 698.88,250.20 C695.88,242.52 695.05,223.77 697.36,215.86 C700.91,203.73 709.17,194.56 720.26,190.44 C724.18,188.99 728.02,188.51 735.50,188.52 C744.58,188.54 746.10,188.83 752.00,191.64 C766.66,198.60 774.00,211.57 774.00,230.50 C774.00,249.68 766.49,263.19 752.12,269.83 C747.46,271.98 744.79,272.47 736.50,272.70 C730.17,272.87 725.03,272.49 722.50,271.65 ZM 461.29 271.60 C450.64,268.14 443.70,261.85 438.68,251.13 C436.11,245.64 435.59,243.16 435.21,234.57 C434.23,212.60 441.02,199.13 456.85,191.66 C462.99,188.77 464.32,188.52 474.05,188.51 C484.26,188.50 484.85,188.62 492.26,192.29 C507.52,199.82 513.77,212.59 512.81,234.23 C512.41,243.21 511.92,245.58 509.28,251.21 C505.17,259.99 500.11,265.33 492.20,269.22 C486.28,272.14 484.60,272.49 475.56,272.72 C469.09,272.88 464.00,272.49 461.29,271.60 ZM 597.34 270.44 C597.12,269.86 597.06,257.60 597.22,243.19 C597.37,228.79 597.24,217.00 596.92,217.00 C596.61,217.00 591.66,229.14 585.92,243.98 L 575.50 270.96 L 569.90 270.98 L 564.29 271.00 L 554.50 245.75 C549.12,231.86 544.12,219.38 543.40,218.00 C542.28,215.88 542.07,219.68 542.04,243.25 L 542.00 271.00 L 527.00 271.00 L 527.00 190.00 L 546.59 190.00 L 558.01 219.48 C564.29,235.70 569.75,248.64 570.13,248.23 C570.70,247.62 574.95,236.81 591.43,194.00 L 592.77 190.50 L 602.89 190.22 L 613.00 189.93 L 613.00 270.84 L 605.37 271.17 C600.63,271.38 597.59,271.10 597.34,270.44 ZM 275.42 271.08 C275.19,270.85 275.00,252.52 275.00,230.33 L 275.00 190.00 L 294.96 190.00 C312.46,190.00 315.58,190.25 320.25,191.99 C330.90,195.98 336.96,205.40 336.96,218.00 C336.96,230.05 331.72,238.69 321.76,243.05 C317.49,244.92 314.19,245.44 304.20,245.80 L 291.90 246.24 L 292.22 271.18 L 284.03 271.34 C279.52,271.43 275.64,271.31 275.42,271.08 ZM 188.00 190.00 L 205.00 190.00 L 205.00 223.00 L 242.00 223.00 L 242.00 190.00 L 259.00 190.00 L 259.00 271.00 L 242.00 271.00 L 242.00 237.00 L 205.00 237.00 L 205.00 271.00 L 188.00 271.00 L 188.00 190.00 ZM 350.41 271.08 C350.19,270.85 350.00,252.52 350.00,230.33 L 350.00 190.00 L 367.00 190.00 L 367.00 223.00 L 404.00 223.00 L 404.00 190.00 L 421.00 190.00 L 421.00 271.00 L 404.00 271.00 L 404.00 237.00 L 367.00 237.00 L 367.00 270.85 L 358.91 271.17 C354.46,271.35 350.64,271.31 350.41,271.08 ZM 629.00 190.00 L 683.00 190.00 L 683.00 204.00 L 645.93 204.00 L 646.21 213.75 L 646.50 223.50 L 663.75 223.77 L 681.00 224.05 L 681.00 237.00 L 646.00 237.00 L 646.00 257.00 L 683.00 257.00 L 683.00 271.00 L 629.00 271.00 L 629.00 190.00 ZM 480.28 257.94 C488.77,255.58 494.66,246.50 495.69,234.16 C497.23,215.80 488.56,203.02 474.57,203.01 C466.57,203.00 461.01,205.76 457.07,211.71 C453.34,217.35 452.49,221.10 452.52,232.02 C452.54,239.30 452.95,241.37 455.35,246.28 C460.40,256.61 469.59,260.91 480.28,257.94 ZM 740.50 257.90 C749.71,255.38 755.46,247.02 756.60,234.50 C757.76,221.76 753.52,211.04 745.01,205.25 C742.40,203.47 740.30,203.00 735.05,203.00 C725.87,203.00 720.42,206.40 716.37,214.65 C713.75,219.98 713.50,221.43 713.53,231.00 C713.55,240.44 713.83,242.02 716.26,246.69 C721.47,256.67 730.21,260.71 740.50,257.90 ZM 313.70 230.04 C322.63,224.59 321.90,209.68 312.46,205.04 C310.60,204.13 306.34,203.57 301.00,203.54 L 292.50 203.50 L 292.22 217.75 L 291.95 232.00 L 301.22 232.00 C308.66,231.99 311.14,231.61 313.70,230.04 Z" fill="rgba(2,2,2,1)"/>
<path d="M 115.00 192.28 L 120.75 191.60 C139.47,189.40 161.31,180.34 173.21,169.84 L 177.50 166.05 L 169.69 170.43 C169.38,170.61 169.06,170.78 168.75,170.95 C173.83,168.16 178.55,164.70 182.86,160.57 C192.53,151.35 201.70,137.32 203.86,128.46 C204.39,126.28 205.56,121.83 206.45,118.57 C207.39,115.14 208.03,111.18 208.40,106.88 L 208.11 111.97 L 238.81 112.24 L 269.50 112.50 L 270.03 177.00 L 179.00 177.00 L 179.00 271.00 L 115.00 271.00 L 115.00 192.28 ZM 102.20 164.61 C100.81,165.14 99.44,165.63 98.15,166.07 C81.56,171.73 61.96,175.00 35.24,176.59 L 23.97 177.26 L 24.24 144.88 L 24.50 112.50 L 57.75 112.28 C76.04,112.16 91.00,112.38 91.00,112.78 C91.00,113.18 90.16,115.75 89.12,118.50 C84.96,129.59 85.60,141.80 90.93,153.45 C93.84,159.79 97.44,164.88 98.38,163.95 C98.61,163.72 98.41,162.18 97.93,160.25 C99.27,164.92 99.61,165.13 102.03,164.64 C102.09,164.63 102.14,164.62 102.20,164.61 ZM 115.00 55.50 L 115.00 25.00 L 173.13 25.00 L 172.47 27.25 C170.08,35.35 157.62,51.71 145.93,62.11 C138.66,68.57 116.45,86.00 115.49,86.00 C115.22,86.00 115.00,72.28 115.00,55.50 ZM 156.75 176.08 C146.89,179.29 136.20,180.53 125.85,179.56 C125.42,179.52 125.00,179.48 124.60,179.44 C127.70,179.62 132.05,179.66 136.00,179.53 C143.36,179.28 150.29,178.13 156.75,176.08 ZM 190.66 29.65 C194.84,36.56 198.54,45.14 201.49,54.31 C198.40,45.46 193.75,34.75 190.66,29.65 ZM 97.45 158.49 C96.06,153.84 95.72,147.67 96.26,141.38 C95.79,147.39 96.15,153.42 97.45,158.49 ZM 207.83 82.60 C208.67,89.18 208.99,95.52 208.71,101.24 C208.87,95.36 208.57,89.02 207.83,82.60 ZM 127.78 152.17 L 124.64 154.12 C122.35,155.54 119.03,157.27 115.32,159.02 C119.05,157.22 122.61,155.37 124.64,154.12 L 127.78 152.17 ZM 116.99 176.38 C117.36,175.86 118.02,175.23 118.94,174.48 C118.13,175.15 117.45,175.82 116.99,176.38 ZM 119.62 178.79 C118.87,178.65 118.28,178.50 117.82,178.32 C118.33,178.48 118.95,178.64 119.62,178.79 Z" fill="rgba(25,88,156,1)"/>
<path d="M 121.27 179.13 C118.94,178.71 116.75,178.08 116.39,177.73 C116.04,177.37 117.27,175.84 119.12,174.32 C120.98,172.81 126.10,168.11 130.50,163.90 L 138.50 156.23 L 146.13 155.54 C154.61,154.77 167.36,150.73 174.50,146.56 C180.10,143.27 179.85,142.01 174.17,144.91 C166.24,148.96 143.00,153.60 143.00,151.13 C143.00,150.60 143.34,150.02 143.75,149.83 C145.06,149.25 152.33,139.91 157.50,132.16 C160.25,128.04 163.18,124.32 164.00,123.90 C164.82,123.48 169.32,121.33 174.00,119.12 C181.68,115.48 192.77,107.44 191.65,106.31 C191.40,106.07 188.94,107.49 186.17,109.47 C181.93,112.52 170.51,118.00 168.41,118.00 C167.18,118.00 168.88,112.37 173.49,101.22 C178.00,90.30 184.07,69.02 183.93,64.64 C183.89,63.46 182.82,66.16 181.56,70.63 C180.30,75.10 178.02,82.08 176.50,86.13 C172.85,95.88 161.59,117.87 158.13,122.02 L 155.38 125.31 L 153.51 121.41 C152.18,118.62 151.51,114.35 151.15,106.50 C150.84,99.53 150.39,96.42 149.93,98.00 C148.74,102.08 148.91,118.93 150.20,125.21 L 151.41 131.03 L 145.45 137.09 C138.42,144.25 132.12,149.45 131.38,148.71 C129.73,147.06 127.02,132.36 126.92,124.50 C126.84,118.44 126.54,116.32 126.00,118.00 C124.68,122.13 124.93,140.09 126.40,146.33 L 127.78 152.17 L 124.64 154.12 C119.60,157.25 104.99,164.05 102.03,164.64 C99.45,165.16 99.23,164.89 97.66,159.28 C94.43,147.78 96.25,130.86 101.83,120.57 C105.68,113.46 112.67,106.21 124.77,96.77 C149.56,77.43 155.84,72.24 161.90,66.04 C171.47,56.26 177.61,47.67 183.25,36.15 L 188.32 25.79 L 190.66 29.65 C194.48,35.97 200.71,50.90 203.40,60.24 C209.17,80.20 210.42,104.05 206.45,118.57 C205.56,121.83 204.39,126.28 203.86,128.46 C201.70,137.32 192.53,151.35 182.86,160.57 C170.36,172.51 154.55,178.91 136.00,179.53 C130.23,179.72 123.60,179.54 121.27,179.13 Z" fill="rgba(201,217,61,1)"/>
</g>
</svg>